<svg width="210" height="187" viewBox="0 0 210 187" fill="none" xmlns="http://www.w3.org/2000/svg">
<path d="M104.827 38.2837C104.878 35.9153 104.606 34.093 102.445 32.1524C97.2867 27.5205 93.4317 21.575 87.8466 17.2587C62.9831 -1.95656 28.011 8.62845 14.8272 33.7836C2.9338 56.4766 4.96078 78.5851 18.4201 99.7246C27.4444 113.898 39.5994 125.4 52.3068 136.308C63.2395 145.692 73.9863 155.293 84.8308 164.78C89.8105 169.136 94.8051 173.476 99.8361 177.773C102.622 180.153 106.889 180.219 109.81 177.763C118.858 170.154 127.902 162.536 136.808 154.761C147.39 145.523 158.173 136.473 168.241 126.695C181.159 114.149 193.588 101.068 199.334 83.2857C207.776 57.1558 200.317 27.1374 174.195 13.0293C157.439 3.97986 138.176 4.90165 122.308 17.2583C118.164 20.485 114.334 23.9015 111.245 28.2248C109.704 30.3811 107.924 32.6008 105.327 33.7837" stroke="white" stroke-width="13" stroke-linecap="round" stroke-linejoin="round"/>
</svg>
