<svg width="625" height="625" viewBox="0 0 625 625" fill="none" xmlns="http://www.w3.org/2000/svg">
<path d="M335.894 483.481C238.186 385.783 140.727 288.335 43.2704 190.886C35.1497 182.766 35.1603 179.627 43.3271 171.461C88.4619 126.331 133.597 81.2012 178.736 36.0745C185.877 28.9347 189.452 28.954 196.673 36.174C233.204 72.7035 269.733 109.235 306.256 145.772C313.164 152.682 313.187 156.558 306.367 163.385C291.173 178.593 275.965 193.788 260.769 208.995C259.485 210.28 258.255 211.619 257.275 212.646C310.571 265.895 363.695 318.971 418.475 373.702C418.888 372.814 419.284 370.753 420.51 369.512C435.15 354.693 449.909 339.992 464.648 325.27C471.132 318.793 475.201 318.731 481.583 325.035C519.404 362.394 557.22 399.758 595.028 437.13C601.696 443.722 601.741 447.894 595.211 454.425C551.613 498.029 508.005 541.622 464.394 585.213C463.454 586.153 462.527 587.138 461.458 587.914C457.559 590.741 452.91 590.33 449.677 586.961C446.727 583.887 446.331 579.037 448.912 575.505C449.984 574.038 451.354 572.778 452.648 571.484C481.747 542.371 510.856 513.266 539.957 484.155C541.231 482.881 542.453 481.554 543.373 480.593C508.595 445.816 474 411.221 438.846 376.068C434.341 380.729 429.443 385.932 424.394 390.982C418.847 396.529 414.503 396.511 408.939 390.95C352.242 334.286 295.559 277.608 238.891 220.914C233.423 215.445 233.386 210.873 238.807 205.431C243.497 200.722 248.373 196.198 252.697 192.043C218.454 157.8 184.698 124.043 151.382 90.7266C121.515 120.611 90.9579 151.186 59.4671 182.696C60.2665 183.249 62.1142 184.159 63.4936 185.538C171.348 293.33 279.165 401.158 386.979 508.991C388.508 510.52 390.136 512.004 391.39 513.744C394.093 517.494 393.491 522.503 390.198 525.545C387.036 528.465 382.352 528.721 378.725 526.056C377.527 525.175 376.491 524.063 375.432 523.005C362.33 509.919 349.239 496.824 335.894 483.481ZM257.952 169.923C260.575 172.633 263.197 175.343 265.03 177.238C273.224 169.12 280.956 161.461 287.826 154.656C254.404 121.23 220.655 87.4752 187.351 54.166C180.185 61.348 172.566 68.9842 164.807 76.76C195.481 107.439 226.467 138.431 257.952 169.923ZM471.906 343.561C465.564 349.894 459.222 356.226 453.221 362.218C488.116 397.116 522.701 431.704 556.56 465.567C563.119 459.004 570.099 452.02 577.163 444.951C577.368 445.249 577.219 444.939 576.988 444.71C543.232 411.322 509.475 377.934 475.671 344.594C474.874 343.808 473.535 343.57 471.906 343.561Z" fill="#152230"/>
<path d="M546.613 105.756C587.004 151.941 611.761 205.071 621.26 265.294C624.673 286.927 625.428 308.732 624.144 330.572C623.967 333.585 622.501 337.487 620.27 339.139C618.097 340.748 613.462 341.24 611.215 339.948C608.764 338.539 606.615 334.589 606.439 331.622C605.926 322.998 606.818 314.3 606.538 305.651C603.808 221.471 571.415 150.664 509.327 93.9133C463.352 51.8893 408.798 27.575 346.992 20.257C330.856 18.3466 314.423 18.7511 298.12 18.5401C289.69 18.4311 284.383 12.3705 287.711 5.60993C289.534 1.9075 292.768 0.683196 296.731 0.464087C328.93 -1.31609 360.627 2.03832 391.742 10.2995C452.796 26.5096 504.274 58.4255 546.613 105.756Z" fill="#152230"/>
<path d="M137.217 571.122C63.283 519.692 19.0229 449.675 3.9599 361.422C1.1436 344.921 0.953761 327.951 0.0140643 311.172C-0.151753 308.211 1.16153 304.178 3.27281 302.362C5.30825 300.611 9.43995 300.21 12.3264 300.801C16.2974 301.614 17.7269 305.272 17.8996 309.3C18.349 319.783 18.4361 330.308 19.4782 340.736C25.9454 405.446 50.8499 462.218 94.5481 510.328C141.512 562.033 200.095 592.784 269.01 603.455C284.089 605.79 299.526 605.866 314.809 606.803C320.798 607.17 324.581 609.782 325.27 614.725C326.053 620.341 321.634 624.776 315.043 624.85C290.106 625.132 265.487 622.333 241.237 616.617C203.932 607.823 169.325 592.753 137.217 571.122Z" fill="#152230"/>
<path d="M118.036 353.129C131.407 430.663 194.452 495.676 271.704 511.788C278.211 513.146 284.83 513.964 291.394 515.051C298.99 516.309 302.786 522.861 299.269 528.752C297.041 532.483 293.611 533.51 289.405 533.038C261.781 529.941 235.556 522.045 211.351 508.497C148.009 473.045 110.587 419.198 98.7756 347.571C98.3696 345.109 98.0795 342.622 97.8616 340.136C97.4166 335.057 100.653 330.759 105.438 329.951C110.116 329.161 114.603 332.312 115.573 337.418C116.535 342.483 117.156 347.613 118.036 353.129Z" fill="#152230"/>
<path d="M507.814 266.661C483.863 185.998 430.894 137.322 349.051 119.957C348.076 119.75 347.063 119.706 346.103 119.451C340.871 118.063 337.885 113.964 338.616 109.241C339.385 104.268 343.697 100.775 349.2 101.87C359.941 104.008 370.894 105.832 381.166 109.466C462.471 138.23 511.883 194.97 529.058 279.592C530.149 284.967 527.198 289.651 522.366 290.76C517.25 291.934 512.772 288.86 511.446 283.129C510.209 277.786 509.101 272.413 507.814 266.661Z" fill="#152230"/>
</svg>
