<svg width="201" height="45" viewBox="0 0 201 45" fill="none" xmlns="http://www.w3.org/2000/svg">
<path d="M135.624 21.3682C135.47 22.3081 135.207 23.199 135.195 24.0933C135.147 27.8123 135.175 31.5323 135.175 35.2968C133.761 35.2968 132.365 35.2968 130.903 35.2968C130.903 34.7281 130.903 34.1624 130.903 33.5966C130.903 30.3058 130.912 27.015 130.899 23.7243C130.894 22.2088 130.418 20.862 129.263 19.8346C126.73 17.5823 122.877 18.3625 121.53 21.5537C121.257 22.2026 121.144 22.9625 121.136 23.6731C121.098 27.3109 121.118 30.9494 121.118 34.5877C121.118 34.8096 121.118 35.0316 121.118 35.2974C119.687 35.2974 118.292 35.2974 116.869 35.2974C116.869 28.4739 116.869 21.6584 116.869 14.8141C118.279 14.8141 119.661 14.8141 121.106 14.8141C121.106 15.4433 121.106 16.0434 121.106 16.7929C123.027 14.8271 125.268 14.0128 127.84 14.2492C130.451 14.4893 132.488 15.7794 134.038 17.9912C134.305 17.6352 134.527 17.2904 134.796 16.9884C136.302 15.3023 138.178 14.3629 140.446 14.2341C143.25 14.0749 145.551 15.1068 147.367 17.2171C148.491 18.5223 149.19 20.0725 149.217 21.7806C149.288 26.2738 149.241 30.7688 149.241 35.3024C147.829 35.3024 146.433 35.3024 144.971 35.3024C144.971 35.0722 144.971 34.8537 144.971 34.6352C144.971 30.9561 144.999 27.2767 144.961 23.5979C144.938 21.3315 143.697 19.687 141.8 18.9096C139.438 17.9414 136.882 18.9559 135.746 21.1104C135.708 21.1811 135.669 21.2507 135.624 21.3682Z" fill="#313131"/>
<path d="M98.3394 25.2719C98.2356 29.3764 96.4206 32.4393 93.0051 34.561C91.7251 35.3561 90.3108 35.6994 88.8011 35.8462C86.0256 36.1159 83.6703 35.2419 81.5927 33.4849C79.6425 31.8357 78.4546 29.741 78.0002 27.2195C77.2333 22.9636 78.486 19.3598 81.6802 16.5279C83.9063 14.5544 86.6227 13.9516 89.5916 14.3399C93.7568 14.8846 97.217 18.4557 98.0776 22.4971C98.2657 23.3803 98.2573 24.3054 98.3394 25.2719ZM89.7223 18.7163C88.5069 18.3867 87.3022 18.3871 86.1167 18.8471C81.9019 20.4828 80.7129 26.4461 83.9387 29.7635C85.6674 31.5412 88.0565 32.0887 90.2172 31.2023C92.5564 30.2428 94.1761 27.6668 94.1212 24.9935C94.0618 22.0981 92.3877 19.6711 89.7223 18.7163Z" fill="#323232"/>
<path d="M157.955 17.7648C161.448 17.7648 164.942 17.7648 168.479 17.7648C168.479 19.2012 168.479 20.5972 168.479 22.0449C164.951 22.0449 161.425 22.0449 157.848 22.0449C157.848 26.4807 157.848 30.8657 157.848 35.296C156.403 35.296 155.007 35.296 153.573 35.296C153.573 25.7529 153.573 16.1954 153.573 6.59009C159.187 6.59009 164.812 6.59009 170.47 6.59009C170.47 7.98358 170.47 9.36447 170.47 10.7951C166.284 10.7951 162.103 10.7951 157.825 10.7951C157.825 13.0803 157.825 15.3173 157.831 17.6445C157.876 17.7448 157.916 17.7548 157.955 17.7648Z" fill="#313131"/>
<path d="M65.3437 17.7647C68.8352 17.7647 72.3267 17.7647 75.855 17.7647C75.855 19.2078 75.855 20.6046 75.855 22.0518C72.3163 22.0518 68.7906 22.0518 65.2084 22.0518C65.2084 26.4827 65.2084 30.8643 65.2084 35.2937C63.7589 35.2937 62.365 35.2937 60.938 35.2937C60.938 25.7422 60.938 16.1877 60.938 6.58765C66.562 6.58765 72.1857 6.58765 77.8365 6.58765C77.8365 7.98663 77.8365 9.36768 77.8365 10.8004C73.6466 10.8004 69.4682 10.8004 65.1887 10.8004C65.1887 13.086 65.1887 15.3215 65.2018 17.6486C65.2578 17.7483 65.3008 17.7565 65.3437 17.7647Z" fill="#323232"/>
<path d="M197.574 14.7333C198.432 14.7333 199.229 14.7333 200.147 14.7333C199.837 15.1885 199.577 15.5937 199.295 15.9832C197.215 18.854 195.138 21.7271 193.038 24.5833C192.782 24.9321 192.805 25.146 193.049 25.4777C195.358 28.6185 197.649 31.7722 199.944 34.9224C200.022 35.0299 200.096 35.1405 200.236 35.3412C198.483 35.3412 196.837 35.3546 195.191 35.3224C195.008 35.3188 194.788 35.0869 194.657 34.9083C193.145 32.8548 191.646 30.7912 190.09 28.656C189.537 29.3997 189.009 30.1016 188.491 30.8104C187.455 32.2266 186.429 33.6502 185.383 35.059C185.281 35.1952 185.071 35.3277 184.91 35.3297C183.296 35.3496 181.683 35.3418 179.914 35.3418C180.252 34.8425 180.521 34.4192 180.816 34.0147C182.765 31.3397 184.723 28.6706 186.672 25.9953C187.385 25.0161 187.386 25.005 186.672 24.0265C184.523 21.0811 182.366 18.1411 180.215 15.1968C180.123 15.0716 180.061 14.9248 179.955 14.7336C181.666 14.7336 183.331 14.7252 184.996 14.7476C185.15 14.7496 185.344 14.9166 185.449 15.0588C186.878 16.9965 188.295 18.9438 189.717 20.887C189.81 21.0146 189.923 21.1282 190.062 21.29C191.232 19.7074 192.382 18.1541 193.529 16.5975C193.798 16.231 194.083 15.8704 194.308 15.4774C194.663 14.8607 195.151 14.6356 195.859 14.7203C196.403 14.7854 196.961 14.7333 197.574 14.7333Z" fill="#323232"/>
<path d="M105.981 33.2471C105.981 33.9607 105.981 34.6129 105.981 35.3032C104.554 35.3032 103.155 35.3032 101.733 35.3032C101.733 28.4843 101.733 21.6817 101.733 14.8313C103.125 14.8313 104.504 14.8313 105.965 14.8313C105.965 15.4645 105.965 16.1213 105.965 16.8674C108.324 14.4089 111.084 13.7964 114.279 14.5078C113.741 15.8571 113.231 17.1799 112.671 18.4811C112.606 18.6335 112.225 18.7881 112.055 18.7347C111.211 18.4686 110.389 18.4811 109.553 18.7394C107.825 19.2732 106.197 20.7331 106.092 22.7055C105.939 25.5795 106.006 28.4653 105.982 31.3461C105.977 31.9593 105.981 32.5725 105.981 33.2471Z" fill="#313131"/>
<path d="M26.5559 23.9673C26.2204 21.0119 25.8915 18.1113 25.5639 15.2213C25.1163 15.8593 24.701 16.5549 24.1859 17.1664C22.4275 19.2539 20.0718 20.2479 17.4524 20.7115C16.7823 20.8301 16.1858 20.4265 16.0344 19.8251C15.8744 19.1894 16.1529 18.6803 16.8658 18.3941C18.934 17.5637 20.95 16.6385 22.7278 15.2661C24.4143 13.9642 25.7595 12.4192 26.2682 10.2796C26.2802 10.229 26.3355 10.1887 26.4194 10.0807C26.8278 12.6724 27.2296 15.1988 27.6233 17.7265C28.1573 21.1558 28.7299 24.5801 29.1863 28.0197C29.3119 28.966 29.1978 29.9852 28.9882 30.9251C28.6874 32.2748 27.7525 33.1803 26.5147 33.793C26.2694 33.9145 25.9189 34.2616 25.9558 34.4309C26.0586 34.9029 26.4994 34.7982 26.8665 34.7217C26.9265 34.7092 26.9875 34.7013 27.0474 34.688C28.4372 34.379 28.9663 34.9426 28.5422 36.2929C28.3346 36.9539 28.0954 37.6049 27.8869 38.2656C27.6596 38.986 27.9227 39.4049 28.6667 39.4172C29.892 39.4374 31.1198 39.4412 32.3434 39.3831C33.5647 39.3252 34.5914 37.6451 34.3829 36.2959C34.103 34.4847 33.8386 32.665 33.7028 30.839C33.4803 27.8455 34.2969 25.0266 35.3004 22.24C35.9347 20.4788 36.4819 18.6824 36.9845 16.8785C37.7843 14.0075 37.538 11.1845 36.4505 8.41645C35.7505 6.6346 35.1164 4.82662 34.3983 3.05235C34.2743 2.74589 33.9062 2.37928 33.6036 2.32981C31.6403 2.00888 29.6891 2.03212 28.0979 3.44476C26.4167 4.93726 24.4349 5.51811 22.2623 5.6414C19.9323 5.77363 17.7589 6.34767 15.8709 7.801C15.4045 8.1601 14.8819 8.45168 14.3661 8.74043C11.8446 10.1521 10.2859 12.2455 9.76184 15.1071C9.57776 16.1122 8.83853 16.4646 8.07787 15.9667C7.62865 15.6726 7.52416 15.2407 7.61404 14.7347C8.12942 11.8331 9.51876 9.46808 11.9106 7.71497C12.086 7.58647 12.2479 7.43971 12.3826 7.1609C11.9042 7.13528 11.4261 7.09611 10.9474 7.08631C8.49126 7.03604 6.11393 7.47724 3.78958 8.24637C3.46103 8.35509 3.12926 8.4645 2.79056 8.52996C2.10505 8.66244 1.62701 8.33642 1.44582 7.64772C1.33958 7.24388 1.74137 6.58705 2.22303 6.41778C5.24842 5.35452 8.34555 4.71216 11.5713 4.92552C12.6393 4.99616 13.7011 5.24457 14.7661 5.24728C15.4146 5.24893 16.1457 5.07174 16.6966 4.73837C18.021 3.93698 19.4536 3.66377 20.9476 3.56585C22.3031 3.477 23.6803 3.43769 24.9157 2.82114C25.6959 2.43174 26.3873 1.86335 27.1157 1.37116C29.0128 0.0893687 31.1197 -0.177422 33.3325 0.0985288C33.8695 0.165486 34.4858 0.156646 34.9098 0.427072C35.4435 0.767554 35.9984 1.2857 36.2287 1.85484C37.2578 4.39895 38.2204 6.97288 39.1071 9.57016C39.4145 10.4705 39.4761 11.4654 39.568 12.425C39.6266 13.0365 39.9534 13.346 40.433 13.6296C43.2325 15.2851 46.2149 16.5224 49.2904 17.553C49.5962 17.6555 49.8948 17.7821 50.1902 17.9125C50.7396 18.155 50.8448 18.6396 50.7163 19.1368C50.5894 19.6279 50.2 19.9895 49.6714 19.8618C48.513 19.5818 47.3687 19.2377 46.2297 18.8843C43.9324 18.1714 41.894 16.9214 39.8185 15.7503C39.7529 15.7133 39.674 15.6999 39.5087 15.6444C39.3109 16.4001 39.1452 17.1361 38.9249 17.8554C38.1728 20.3112 37.4121 22.7646 36.6339 25.2124C36.064 27.0051 35.747 28.812 35.9872 30.7069C36.1122 31.6932 36.0966 32.6982 36.1282 33.6953C36.1416 34.1171 36.2171 34.4028 36.722 34.5246C37.2379 34.6491 37.5173 34.4653 37.7683 34.0799C38.193 33.4278 38.5852 32.7497 39.0596 32.1355C40.0969 30.7926 41.5506 30.139 43.175 29.8493C44.9427 29.534 46.6453 29.7547 48.222 30.6587C50.4203 31.9191 51.6486 33.7929 51.9889 36.3305C52.5114 40.2257 49.5122 43.613 46.3696 44.3044C43.691 44.8936 41.2611 44.3734 39.3285 42.3113C38.7509 41.6949 38.2971 40.9537 37.8416 40.2349C37.5604 39.791 37.2185 39.5529 36.7072 39.6267C35.8751 39.7469 35.1032 39.9928 34.6621 40.8041C34.303 41.4646 33.7041 41.6716 32.9997 41.6752C30.6492 41.6873 28.2987 41.7035 25.9481 41.7095C24.8827 41.7123 24.4851 41.142 24.8125 40.1085C24.8414 40.0173 24.8727 39.9268 24.9379 39.7307C24.3581 39.7307 23.8323 39.6805 23.3251 39.7558C23.1263 39.7852 22.9102 40.0663 22.8023 40.2828C21.8192 42.2552 20.3005 43.6185 18.1836 44.2239C15.8652 44.8868 13.6642 44.53 11.6667 43.1616C10.0362 42.0445 9.11344 40.4196 8.69583 38.5387C8.22212 36.405 8.81675 34.4414 10.0406 32.6925C12.6926 28.9028 18.5397 28.6165 21.6584 32.2198C22.1171 32.7497 22.462 33.384 22.8188 33.9938C23.0394 34.371 23.1872 34.5334 23.5623 34.1273C24.4866 33.1268 25.4921 32.1981 26.3715 31.1612C26.7076 30.765 26.8363 30.1647 26.9703 29.6349C27.0631 29.2679 26.8866 28.9637 26.4868 28.7782C25.1301 28.1488 23.7934 27.4762 22.4374 26.8453C22.2716 26.7682 21.9881 26.7685 21.8376 26.8608C20.1857 27.8745 18.3452 28.0372 16.5192 27.8114C14.8028 27.5992 13.1347 27.0012 11.659 26.0729C10.1076 25.0968 8.60302 24.0315 7.16281 22.8975C5.8672 21.8773 4.64104 20.757 3.46887 19.5956C2.44159 18.5776 1.52 17.4513 0.575137 16.3527C0.0992925 15.7994 0.137511 15.138 0.60702 14.7522C1.0025 14.4272 1.62631 14.552 2.09085 15.0977C4.30759 17.7017 6.67114 20.1573 9.39097 22.2431C11.5088 23.8673 13.7479 25.2822 16.4199 25.8145C18.1435 26.1579 19.7959 25.9832 21.2869 24.9574C21.8127 24.5956 22.3345 24.601 22.9004 24.8854C24.1727 25.5249 25.4586 26.1375 26.8607 26.8202C26.7537 25.8154 26.6582 24.9188 26.5559 23.9673Z" fill="#323232"/>
<path d="M18.7642 13.2841C17.7526 13.9059 16.7671 14.4861 15.8142 15.1157C15.5991 15.2578 15.4077 15.5549 15.3594 15.8098C15.1523 16.9037 14.2168 17.6143 13.2039 17.3877C12.1518 17.1523 11.5398 16.1132 11.8535 15.095C12.1759 14.0482 13.2271 13.586 14.3204 13.9795C14.4943 14.0421 14.7625 14.026 14.9172 13.9317C19.7087 11.0126 24.4933 8.08225 29.2682 5.13611C29.4495 5.02423 29.6023 4.7497 29.6336 4.5316C29.7586 3.66162 30.3434 3.02591 31.2081 2.89991C31.9875 2.78632 32.7772 3.23251 33.0921 3.96438C33.416 4.71721 33.1703 5.57464 32.5365 6.122C32.3543 6.27939 32.1838 6.57074 32.1834 6.801C32.1658 16.0782 32.1658 25.3555 32.1834 34.6327C32.1838 34.866 32.3534 35.1583 32.5352 35.3217C33.3547 36.058 33.4686 37.2277 32.7552 37.9867C32.0357 38.7522 30.8014 38.728 30.0899 37.9345C29.3833 37.1466 29.5307 35.9924 30.3841 35.283C30.5654 35.1323 30.7159 34.8273 30.7163 34.5931C30.7328 25.3567 30.7313 16.1203 30.7242 6.88397C30.724 6.67822 30.631 6.47255 30.5813 6.26684C30.3618 6.33014 30.115 6.34875 29.9267 6.46336C26.2145 8.72235 22.509 10.9925 18.7642 13.2841Z" fill="#0261F1"/>
<path d="M176.59 18.5274C176.59 24.1414 176.59 29.694 176.59 35.294C175.175 35.294 173.78 35.294 172.344 35.294C172.344 28.4912 172.344 21.6652 172.344 14.8113C173.74 14.8113 175.121 14.8113 176.59 14.8113C176.59 16.0372 176.59 17.2517 176.59 18.5274Z" fill="#313131"/>
<path d="M173.282 7.56705C174.255 7.2966 175.187 7.14807 175.986 7.92113C176.689 8.60011 176.92 9.55732 176.578 10.4142C176.254 11.2282 175.387 11.7447 174.446 11.7909C173.215 11.8512 172.535 11.0963 172.305 10.4324C171.963 9.44565 172.269 8.31283 173.034 7.69603C173.093 7.64845 173.18 7.63587 173.282 7.56705Z" fill="#323232"/>
</svg>
