<svg width="92" height="50" viewBox="0 0 92 50" fill="none" xmlns="http://www.w3.org/2000/svg">
<path d="M66.765 44.0273C66.5557 43.4735 66.3638 42.9667 66.1795 42.4797C65.1269 42.4797 64.0978 42.4797 63.0688 42.4797C58.5702 42.4797 54.0716 42.4851 49.5731 42.471C49.1438 42.4697 48.9225 42.5587 48.774 43.0112C47.4139 47.1556 43.6224 49.8125 39.3201 49.6719C35.0888 49.5335 31.4843 46.6056 30.3796 42.4102C30.3411 42.2639 30.2962 42.1193 30.2476 41.9506C30.0133 41.9098 29.7792 41.8393 29.5432 41.8324C25.7502 41.7223 22.4461 37.6152 21.8834 34.5165C21.6967 33.4881 21.6602 32.4304 21.5899 31.3838C21.5506 30.7989 21.5829 30.2092 21.5829 29.549C21.2898 29.549 21.056 29.549 20.8221 29.549C17.2671 29.549 13.7121 29.5491 10.1572 29.5486C9.95974 29.5486 9.75891 29.5655 9.56551 29.5361C8.97654 29.4466 8.61431 29.1103 8.55115 28.505C8.48858 27.9055 8.82403 27.4165 9.40672 27.2797C9.65899 27.2205 9.92813 27.2161 10.1896 27.2158C13.7227 27.212 17.2557 27.2132 20.7887 27.2132C21.027 27.2132 21.2652 27.2132 21.5431 27.2132C21.5431 25.6138 21.5431 24.0659 21.5431 22.4221C21.294 22.4221 21.0413 22.4221 20.7885 22.4221C14.4247 22.4221 8.06086 22.4222 1.69703 22.4219C1.49956 22.4219 1.30064 22.4337 1.10488 22.4146C0.442805 22.3498 0.000473596 21.8777 3.79601e-07 21.2505C-0.000471651 20.6246 0.43932 20.1534 1.10396 20.0837C1.29947 20.0632 1.49859 20.0755 1.69605 20.0755C8.05989 20.0752 14.4237 20.0752 20.7875 20.0752C21.0259 20.0752 21.2642 20.0752 21.5426 20.0752C21.5426 18.4838 21.5426 16.9371 21.5426 15.2879C21.3128 15.2879 21.0827 15.2879 20.8527 15.2879C17.2319 15.2878 13.6111 15.2901 9.9903 15.286C9.1152 15.2851 8.62315 14.9232 8.55019 14.2566C8.46595 13.4871 8.96985 12.9565 9.82843 12.9513C11.562 12.9407 13.2956 12.9477 15.0292 12.9476C17.1791 12.9475 19.329 12.9476 21.5829 12.9476C21.5829 12.2354 21.5985 11.5431 21.5798 10.8517C21.531 9.04442 21.8279 7.30345 22.6876 5.70531C24.5694 2.20746 27.4886 0.157248 31.4798 0.0703181C37.2703 -0.055797 43.0655 0.0267608 48.8587 0.0240406C54.4764 0.0214046 60.0941 0.023241 65.7119 0.0235463C70.0083 0.0237754 73.1838 1.92583 75.2414 5.68268C77.0298 8.94788 78.7989 12.2237 80.5565 15.5056C81.0654 16.4558 81.7406 17.2263 82.6217 17.846C84.1461 18.9181 85.6379 20.0364 87.1607 21.1109C90.0923 23.1797 91.7276 25.9623 91.823 29.5779C91.8732 31.4822 91.9896 33.4051 91.361 35.2514C90.3381 38.256 88.4158 40.4324 85.4252 41.6187C85.1879 41.7128 84.9091 41.9702 84.8488 42.2033C83.7614 46.4043 80.5949 49.1847 76.3244 49.6483C72.4467 50.0693 68.6712 47.8639 66.765 44.0273ZM33.548 32.7246C36.2549 30.5815 39.2986 29.8937 42.5695 30.9922C46.8918 32.4436 48.997 35.6676 49.3056 40.1253C51.9725 40.1253 54.5952 40.1253 57.2337 40.1253C57.2337 27.522 57.2337 14.9612 57.2337 2.36538C57.005 2.35338 56.8121 2.33444 56.6191 2.3344C48.4999 2.33294 40.3807 2.32994 32.2616 2.33969C31.65 2.34042 31.0272 2.37575 30.4289 2.49316C26.4972 3.26468 23.9116 6.46803 23.8982 10.6412C23.8754 17.707 23.8899 24.7729 23.893 31.8388C23.894 34.1324 24.6195 36.1438 26.2822 37.7657C27.3351 38.7929 28.5057 39.5835 30.0985 39.495C30.3268 36.7853 31.4389 34.5499 33.548 32.7246ZM80.0867 31.6828C82.9988 33.3484 84.6176 35.8895 85.0763 39.2532C87.1461 38.1912 88.4666 36.6298 89.1422 34.5295C89.6914 32.822 89.5786 31.0536 89.4836 29.306C89.3428 26.7132 88.1305 24.6817 86.0282 23.1709C84.4437 22.0323 82.8723 20.8752 81.2762 19.7531C80.0846 18.9154 79.1687 17.8613 78.4826 16.5766C76.7292 13.293 74.9489 10.0238 73.1784 6.7493C71.8628 4.31615 69.8777 2.70043 67.1081 2.4564C64.6698 2.24156 62.2009 2.37466 59.7454 2.35762C59.7111 2.35738 59.6764 2.40289 59.6302 2.43525C59.6302 14.9887 59.6302 27.5489 59.6302 40.0844C61.7427 40.0844 63.8113 40.0844 65.8783 40.0844C65.9422 32.8581 73.6095 28.2591 80.0867 31.6828ZM78.246 33.3781C77.9952 33.3008 77.7468 33.2147 77.4933 33.1474C74.7388 32.416 72.2826 33.0309 70.3215 35.0575C67.1539 38.3311 67.6469 43.3619 71.3704 46.0017C73.736 47.6787 76.3203 47.8156 78.8764 46.4562C81.4853 45.0687 82.7958 42.8007 82.702 39.8486C82.6061 36.8283 81.0232 34.7282 78.246 33.3781ZM42.54 46.7504C43.01 46.4725 43.5179 46.2429 43.944 45.909C47.0481 43.4769 47.8156 39.7083 45.8106 36.3086C44.1953 33.5696 41.0585 32.356 38.0603 33.0364C35.0404 33.7216 32.7857 36.2897 32.4703 39.4032C32.2031 42.0412 33.6435 44.9813 35.9398 46.2903C38.0416 47.4885 40.2005 47.6175 42.54 46.7504Z" fill="#3F3F3F"/>
<path d="M62.0387 6.04351C62.2176 5.11372 62.5595 4.81027 63.4113 4.80066C64.267 4.79101 65.1229 4.8036 65.9786 4.79746C68.4732 4.77956 70.2942 5.87105 71.4722 8.07411C73.0315 10.9901 74.592 13.9059 76.1975 16.7965C76.7046 17.7095 77.3364 18.5568 77.9533 19.4035C78.2681 19.8356 78.4011 20.2638 78.1797 20.7463C77.9678 21.208 77.5713 21.405 77.0602 21.4045C72.4742 21.4007 67.8883 21.4071 63.3024 21.3976C62.4453 21.3959 62.0398 20.9276 62.0391 19.9912C62.0356 15.3614 62.0375 10.7316 62.0387 6.04351ZM74.155 19.0938C74.3206 19.0859 74.4862 19.078 74.6731 19.0691C74.6532 18.9496 74.6584 18.8808 74.6308 18.8297C72.8197 15.4813 71.0114 12.1314 69.1886 8.7893C68.7092 7.91035 67.9388 7.34036 66.9605 7.21504C66.1285 7.10846 65.272 7.19303 64.4165 7.19303C64.4165 11.1572 64.4165 15.093 64.4165 19.0938C67.6441 19.0938 70.8395 19.0938 74.155 19.0938Z" fill="#3F3F3F"/>
<path d="M76.5452 43.5659C74.6841 44.09 73.1361 43.1631 72.4316 42.0386C71.6289 40.7573 71.6992 39.0785 72.597 37.9072C73.5708 36.6368 75.1933 36.147 76.7106 36.6654C78.1213 37.1474 79.1373 38.578 79.1399 40.0859C79.1425 41.6632 78.1429 43.0209 76.5452 43.5659ZM74.2137 40.3249C74.4847 41.1103 74.9565 41.4619 75.6444 41.3913C76.2525 41.3289 76.7346 40.8413 76.7901 40.2327C76.8587 39.4788 76.3398 38.8448 75.5994 38.7781C74.8225 38.7082 74.2652 39.2811 74.2137 40.3249Z" fill="#3F3F3F"/>
<path d="M43.0303 38.7024C43.9626 41.2366 42.2121 43.474 40.1102 43.6925C38.6457 43.8446 37.4656 43.3118 36.6576 42.1099C35.8317 40.8813 35.7936 39.5465 36.5423 38.2617C37.2628 37.0251 38.3906 36.4147 39.8253 36.477C41.321 36.542 42.3606 37.3258 43.0303 38.7024ZM40.0028 38.8284C39.1135 38.5192 38.1482 39.461 38.3862 40.3753C38.5453 40.9866 39.0496 41.3959 39.6656 41.3964C40.2529 41.3969 40.7832 40.999 40.9353 40.4439C41.1129 39.7955 40.824 39.2501 40.0028 38.8284Z" fill="#3F3F3F"/>
</svg>
