<svg width="108" height="206" viewBox="0 0 108 206" fill="none" xmlns="http://www.w3.org/2000/svg">
<path d="M69.8278 64.4756C69.8219 68.1161 69.8219 71.2744 69.8219 75.0422C81.8439 75.0422 93.7307 75.0422 106.362 75.0422C104.608 87.8107 102.95 99.8812 101.25 112.257C90.7505 112.257 80.635 112.257 69.5424 112.257C69.5424 143.31 69.5424 174.018 69.5424 205.023C56.1617 205.023 43.7566 205.023 30.9453 205.023C30.9453 174.331 30.9453 143.639 30.9453 112.469C20.5455 112.469 10.4555 112.469 0 112.469C0 99.9598 0 87.9294 0 75.3897C10.5063 75.3897 20.7501 75.3897 31.6679 75.3897C31.6679 69.459 31.5057 64.0162 31.7072 58.5869C31.9848 51.1071 31.815 43.5098 33.1094 36.1878C36.7607 15.5322 51.1304 2.24453 72.2646 0.377693C82.1541 -0.495857 92.2036 0.393531 102.179 0.58448C103.955 0.618461 105.721 1.14607 107.652 1.47274C107.652 12.3967 107.652 23.0154 107.652 34.3617C103.551 34.3617 99.6292 34.3415 95.708 34.3674C91.8773 34.3928 88.031 34.2611 84.2196 34.5579C75.2935 35.2528 71.1264 39.4616 70.4316 48.5184C70.037 53.6618 70.0204 58.8341 69.8278 64.4756Z" fill="white"/>
</svg>
