<svg width="512" height="457" viewBox="0 0 512 457" fill="none" xmlns="http://www.w3.org/2000/svg">
<path d="M511.905 171.782C510.968 177.063 510.038 181.876 509.094 186.686C503.7 214.172 491.711 238.767 475.291 261.15C466.429 273.23 456.53 284.585 446.641 295.866C439.002 304.58 431.019 313.066 422.535 320.95C407.496 334.926 391.993 348.403 376.622 362.02C365.943 371.48 355.227 380.901 344.409 390.201C331.268 401.498 317.971 412.613 304.8 423.876C294.842 432.392 284.905 440.935 275.091 449.616C265.466 458.131 246.583 458.181 236.877 449.793C221.162 436.212 205.26 422.847 189.508 409.308C178.941 400.225 168.481 391.018 158.003 381.832C141.474 367.341 124.83 352.977 108.502 338.263C96.7136 327.641 84.9032 316.976 73.9171 305.547C57.3094 288.271 41.547 270.218 28.7681 249.773C16.8345 230.681 7.73226 210.437 2.9113 188.371C2.12169 184.757 1.40925 181.126 0.282956 177.377C-0.0952322 161.563 -0.0952321 145.876 0.288467 129.603C1.0821 128.172 1.75987 127.357 1.86213 126.476C3.62149 111.311 8.2614 96.9619 14.5301 83.1553C24.9009 60.3143 40.1874 41.2915 60.3626 26.3713C76.6227 14.3466 94.9252 6.26745 114.659 2.53739C126.361 0.32555 138.586 0.678238 150.589 0.3179C162.733 -0.0466941 174.496 2.83435 185.804 6.79051C206.445 14.0116 224.363 25.841 239.582 41.5395C245.334 47.4727 250.451 54.0224 255.987 60.4427C260.886 54.6036 265.419 48.6426 270.53 43.2273C280.089 33.0997 291.033 24.6746 303.04 17.5404C319.386 7.82819 337.04 1.76081 355.844 0.48653C371.845 -0.597765 387.894 -0.0657334 403.782 4.09927C434.638 12.1878 459.873 28.6845 479.44 53.5155C494.689 72.8656 504.248 95.1003 508.903 119.36C509.919 124.654 510.905 129.954 511.905 135.251C511.905 147.272 511.905 159.292 511.905 171.782ZM465.417 89.2592C463.537 86.0861 461.837 82.7878 459.745 79.7619C450.94 67.0328 440.395 56.2392 427.177 47.7862C402.261 31.8524 375.383 27.8196 346.879 33.3472C326.575 37.2846 309.569 48.1387 295.461 62.6778C286.402 72.0128 279.587 83.5083 271.619 93.9222C263.768 104.182 247.011 104.233 240.009 93.3661C230.181 78.1136 219.232 64.0087 204.887 52.6574C189.976 40.8585 173.182 33.1451 154.383 31.4899C137.271 29.9833 120.342 31.6712 103.82 38.0401C79.8722 47.2716 61.9206 63.1433 48.9693 84.7167C32.8109 111.632 28.2541 141.047 31.8315 172.039C33.6289 187.61 38.5037 202.192 45.3803 216.041C55.832 237.091 70.0592 255.635 86.0471 272.726C97.7885 285.278 110.249 297.16 122.469 309.26C126.093 312.848 129.932 316.227 133.769 319.592C146.832 331.047 159.934 342.458 173.031 353.875C180.689 360.55 188.315 367.263 196.045 373.853C206.613 382.863 217.321 391.707 227.865 400.744C236.209 407.895 244.383 415.243 252.661 422.472C254.53 424.105 256.294 424.832 258.423 422.436C260.359 420.256 262.806 418.528 265.05 416.626C275.896 407.431 286.785 398.286 297.587 389.04C305.431 382.327 313.129 375.444 320.954 368.707C332.484 358.78 344.112 348.965 355.614 339.005C362.074 333.412 368.417 327.682 374.722 321.914C387.372 310.34 400.286 299.027 412.466 286.975C421.562 277.974 430.314 268.468 438.066 258.308C447.637 245.764 456.829 232.778 464.669 219.112C472.084 206.188 476.623 191.967 479.193 176.998C481.829 161.648 481.545 146.402 479.648 131.267C477.827 116.743 472.694 102.937 465.417 89.2592Z" fill="black"/>
</svg>
