<svg width="196" height="173" viewBox="0 0 196 173" fill="none" xmlns="http://www.w3.org/2000/svg">
<mask id="path-1-inside-1_261_2" fill="white">
<path d="M97.8274 31.2837C97.8782 28.9153 97.6064 27.093 95.4452 25.1524C90.2867 20.5205 86.4317 14.575 80.8466 10.2587C55.9831 -8.95656 21.011 1.62845 7.82717 26.7836C-4.0662 49.4766 -2.03922 71.5851 11.4201 92.7246C20.4444 106.898 32.5994 118.4 45.3068 129.308C56.2395 138.692 66.9863 148.293 77.8308 157.78C82.8105 162.136 87.8051 166.476 92.8361 170.773C95.6222 173.153 99.8886 173.219 102.81 170.763C111.858 163.154 120.902 155.536 129.808 147.761C140.39 138.523 151.173 129.473 161.241 119.695C174.159 107.149 186.588 94.0681 192.334 76.2857C200.776 50.1558 193.317 20.1374 167.195 6.0293C150.439 -3.02014 131.176 -2.09835 115.308 10.2583C111.164 13.485 107.334 16.9015 104.245 21.2248C102.704 23.3811 100.924 25.6008 98.3274 26.7837"/>
</mask>
<path d="M31.8426 29.8672C31.0603 66.3096 59.9685 96.4862 96.4109 97.2685C132.853 98.0508 163.03 69.1425 163.812 32.7002L31.8426 29.8672ZM95.4452 25.1524L51.35 74.2606L51.3503 74.2609L95.4452 25.1524ZM80.8466 10.2587L40.4878 62.4809L40.4881 62.4812L80.8466 10.2587ZM7.82717 26.7836L-50.6307 -3.85425L-50.6308 -3.85416L7.82717 26.7836ZM11.4201 92.7246L67.0935 57.278L67.0935 57.278L11.4201 92.7246ZM45.3068 129.308L88.294 79.2268L88.2939 79.2267L45.3068 129.308ZM77.8308 157.78L34.3738 207.454L34.3739 207.454L77.8308 157.78ZM92.8361 170.773L49.9724 220.96L49.9731 220.961L92.8361 170.773ZM102.81 170.763L145.287 221.277L145.287 221.276L102.81 170.763ZM129.808 147.761L173.214 197.48L173.214 197.48L129.808 147.761ZM161.241 119.695L115.26 72.3475L115.26 72.3476L161.241 119.695ZM192.334 76.2857L255.137 96.577L255.137 96.5765L192.334 76.2857ZM167.195 6.0293L135.831 64.1011L135.831 64.1012L167.195 6.0293ZM115.308 10.2583L155.856 62.3332L155.857 62.333L115.308 10.2583ZM104.245 21.2248L157.945 59.596L157.945 59.5957L104.245 21.2248ZM70.9648 -33.2771C37.7942 -18.1652 23.1547 20.9756 38.2666 54.1462C53.3785 87.3168 92.5193 101.956 125.69 86.8444L70.9648 -33.2771ZM163.812 32.7002C163.883 29.4042 164.073 19.1551 160.072 7.16708C155.592 -6.25953 147.8 -16.5396 139.54 -23.9561L51.3503 74.2609C45.2518 68.785 38.6759 60.3864 34.8592 48.9481C31.5225 38.9485 31.8226 30.7947 31.8426 29.8672L163.812 32.7002ZM139.54 -23.9557C140.376 -23.2058 140.724 -22.7948 140.345 -23.2072C139.737 -23.8684 139.427 -24.2376 137.717 -26.1677C135.274 -28.9271 129.362 -35.6599 121.205 -41.9638L40.4881 62.4812C37.9162 60.4936 36.7244 58.8917 38.8943 61.3421C39.4918 62.0169 41.4617 64.2724 43.2016 66.1636C45.1704 68.3036 47.9356 71.1947 51.35 74.2606L139.54 -23.9557ZM121.206 -41.9635C60.5538 -88.837 -20.3795 -61.5744 -50.6307 -3.85425L66.285 57.4214C63.5612 62.6186 59.5047 65.0229 56.0268 65.896C51.7973 66.9578 45.5483 66.3919 40.4878 62.4809L121.206 -41.9635ZM-50.6308 -3.85416C-74.4992 41.6877 -69.205 88.9816 -44.2534 128.171L67.0935 57.278C66.1187 55.7468 65.8153 54.9268 65.7778 54.8202C65.7596 54.7686 65.7993 54.8721 65.8506 55.1188C65.9025 55.3685 65.9556 55.7133 65.9823 56.1327C66.0092 56.5535 66.0052 56.9804 65.972 57.3889C65.9389 57.7965 65.8826 58.1148 65.8352 58.3231C65.7884 58.5288 65.7632 58.571 65.8131 58.4379C65.8642 58.3017 66.0009 57.9636 66.2851 57.4213L-50.6308 -3.85416ZM-44.2534 128.171C-29.7741 150.913 -11.4174 167.597 2.31964 179.389L88.2939 79.2267C76.6162 69.203 70.6628 62.884 67.0935 57.278L-44.2534 128.171ZM2.31953 179.389C12.9951 188.552 22.7844 197.315 34.3738 207.454L121.288 108.106C111.188 99.2704 99.4839 88.8317 88.294 79.2268L2.31953 179.389ZM34.3739 207.454C39.4546 211.898 44.665 216.427 49.9724 220.96L135.7 120.587C130.945 116.526 126.166 112.374 121.288 108.106L34.3739 207.454ZM49.9731 220.961C77.2939 244.294 117.659 244.509 145.287 221.277L60.3321 120.249C82.1179 101.929 113.95 102.011 135.699 120.586L49.9731 220.961ZM145.287 221.276C154.297 213.7 163.784 205.712 173.214 197.48L86.4023 98.0427C78.0203 105.36 69.4197 112.607 60.332 120.249L145.287 221.276ZM173.214 197.48C182.487 189.384 195.493 178.432 207.222 167.042L115.26 72.3476C106.852 80.5131 98.2936 87.6613 86.4022 98.0428L173.214 197.48ZM207.222 167.042C220.055 154.579 243.851 131.507 255.137 96.577L129.53 55.9944C129.52 56.0257 129.442 56.2693 129.146 56.8035C128.833 57.3691 128.25 58.3034 127.194 59.6736C124.834 62.7374 121.406 66.3791 115.26 72.3475L207.222 167.042ZM255.137 96.5765C270.903 47.7777 259.178 -19.3029 198.558 -52.0426L135.831 64.1012C134.775 63.5309 133.401 62.4925 132.157 60.9658C130.958 59.4934 130.291 58.076 129.959 57.0538C129.377 55.2625 129.848 55.0122 129.53 55.9949L255.137 96.5765ZM198.558 -52.0425C159.784 -72.9838 112.186 -70.9598 74.7586 -41.8165L155.857 62.333C153.936 63.8287 150.373 65.6048 145.684 65.9442C141.141 66.2731 137.69 65.1048 135.831 64.1011L198.558 -52.0425ZM74.7589 -41.8167C68.6044 -37.0245 59.0406 -29.0354 50.5451 -17.146L157.945 59.5957C156.749 61.2693 155.707 62.3441 155.232 62.8035C154.821 63.1999 154.85 63.1165 155.856 62.3332L74.7589 -41.8167ZM50.5453 -17.1463C50.3225 -16.8344 51.9408 -19.1968 54.7713 -22.0568C57.8291 -25.1465 63.1418 -29.7131 70.9648 -33.2771L125.69 86.8444C145.628 77.761 156.074 62.2133 157.945 59.596L50.5453 -17.1463Z" fill="#D1463A" mask="url(#path-1-inside-1_261_2)"/>
</svg>
