<svg width="184" height="182" viewBox="0 0 184 182" fill="none" xmlns="http://www.w3.org/2000/svg">
<path d="M86.135 0C104.439 0.595978 122.342 0.22644 140.022 2.03198C162.698 4.34755 179.336 21.5257 181.144 44.2206C183.661 75.7921 184.108 107.496 180.14 138.989C177.257 161.87 161.098 178.231 138.201 179.72C111.493 181.456 84.6276 181.276 57.8397 181.006C48.5314 180.912 38.7424 179.43 30.0614 176.197C10.9226 169.068 2.59609 153.312 1.30782 133.766C-0.611797 104.642 -0.480205 75.4992 2.11507 46.3933C4.27437 22.177 21.1182 4.37881 45.2359 2.00165C58.6378 0.680694 72.1645 0.626312 86.135 0ZM26.3064 28.6461C20.9183 34.8423 18.4433 42.3272 18.3502 50.2584C18.0197 78.3827 17.6081 106.523 18.2252 134.635C18.588 151.16 29.8594 162.302 46.2706 163.774C75.6929 166.414 105.184 166.251 134.612 163.97C151.76 162.641 163.369 151.431 164.008 134.283C165.079 105.525 165.345 76.7126 164.958 47.9366C164.731 31.136 152.649 18.675 135.765 18.1931C106.663 17.3623 77.5183 17.7057 48.3971 18.0317C40.0366 18.1252 32.5914 21.7482 26.3064 28.6461Z" fill="#152230"/>
<path d="M114.404 131.269C85.9791 146.505 54.0547 132.571 45.9526 101.719C39.1054 75.646 59.6952 47.3466 86.5032 44.7901C113.199 42.2443 135.97 61.465 137.802 86.6581C139.209 105.996 131.212 120.842 114.404 131.269ZM66.3836 108.071C67.1082 108.983 67.7757 109.948 68.5662 110.799C77.3342 120.235 88.0006 123.245 100.302 119.614C111.826 116.212 120.17 105.886 121.227 94.2036C122.41 81.1424 117.363 71.144 105.964 64.656C94.3591 58.0507 79.5117 60.3235 70.0854 69.8306C60.0979 79.9036 58.573 93.9129 66.3836 108.071Z" fill="#152230"/>
<path d="M135.169 52.0959C130.54 49.0163 128.692 45.0713 129.966 39.9443C131.073 35.4881 134.005 32.7333 138.501 31.9706C143.388 31.1415 147.435 32.809 149.895 37.1968C152.211 41.327 151.863 45.5168 148.948 49.3083C145.845 53.3432 141.619 54.2162 135.169 52.0959Z" fill="#152230"/>
</svg>
