<svg width="191" height="192" viewBox="0 0 191 192" fill="none" xmlns="http://www.w3.org/2000/svg">
<path d="M106.501 171.923C106.498 178.544 106.498 184.665 106.498 191.046C92.9535 191.046 80.0728 191.046 67.2817 191.046C67.2817 148.576 67.2817 106.51 67.2817 64.1059C80.2384 64.1059 92.6104 64.1059 105.556 64.1059C105.556 69.6017 105.556 74.7929 105.556 81.0729C119.798 61.4304 138.385 58.1318 159.447 62.8908C173.32 66.0255 182.645 74.6864 186.423 88.2009C188.817 96.7638 190.307 105.838 190.475 114.715C190.939 139.187 190.5 163.676 190.394 188.159C190.389 189.283 190.152 190.407 190.003 191.709C177.003 191.709 164.234 191.709 150.703 191.709C150.703 189.586 150.701 187.668 150.704 185.751C150.734 163.934 150.786 142.117 150.761 120.301C150.758 117.987 150.454 115.644 150.022 113.365C147.796 101.627 141.884 96.2012 131.118 95.8773C119.209 95.5189 111.371 100.98 108.658 112.158C107.492 116.965 106.89 122.006 106.791 126.955C106.494 141.774 106.572 156.6 106.501 171.923Z" fill="white"/>
<path d="M2.73462 72.0018C2.73621 69.0269 2.73621 66.5401 2.73621 63.6641C16.0687 63.6641 29.0985 63.6641 42.0288 63.6641C42.0288 106.158 42.0288 148.212 42.0288 190.631C28.5858 190.631 15.6941 190.631 2.73291 190.631C2.73291 151.233 2.73291 111.862 2.73462 72.0018Z" fill="white"/>
<path d="M39.5449 38.7497C31.7639 46.0819 23.0984 48.0178 13.5983 43.8604C4.88428 40.0471 0.226686 32.8664 0.00781365 23.479C-0.211058 14.0847 4.17224 6.84812 12.6571 2.49106C22.3566 -2.4897 34.1316 0.199711 40.941 8.76242C47.8483 17.4481 47.3934 29.0939 39.5449 38.7497Z" fill="white"/>
</svg>
