<svg width="179" height="232" viewBox="0 0 179 232" fill="none" xmlns="http://www.w3.org/2000/svg">
<path d="M88.285 0.00516828C134.039 -0.47923 171.046 33.1465 177.89 75.5998C180.945 94.5515 175.628 111.484 167.338 127.961C151.433 159.574 129.914 187.309 107.455 214.384C103.522 219.126 99.5025 223.803 95.3761 228.377C91.5162 232.656 87.1357 232.784 83.4173 228.504C56.4005 197.413 30.4864 165.495 11.6657 128.544C4.36516 114.211 -0.734964 99.3639 0.0868138 82.6907C2.01529 43.5633 35.4918 6.43608 74.3877 1.23207C78.8308 0.637614 83.324 0.417293 88.285 0.00516828ZM111.124 46.7921C89.565 35.0577 62.9688 42.0458 51.4894 62.4608C39.2921 84.1526 45.9122 110.968 66.362 122.704C87.9294 135.081 114.812 128.734 126.772 108.442C139.714 86.4828 133.272 60.1446 111.124 46.7921Z" fill="#152230"/>
<path d="M63.8363 92.373C61.1937 78.0792 66.1279 67.085 77.4614 61.3098C87.7742 56.0546 100.651 58.3243 108.635 66.8044C116.038 74.6674 118.01 86.3618 113.56 96.0148C108.9 106.123 98.751 112.244 87.8595 111.514C76.3279 110.741 67.7021 103.959 63.8363 92.373Z" fill="#152230"/>
</svg>
