<svg width="1556" height="437" viewBox="0 0 1556 437" fill="none" xmlns="http://www.w3.org/2000/svg">
<path d="M1034.67 196.301C1030.88 194.478 1026.62 193.244 1023.39 190.701C1017.66 186.182 1012.52 180.91 1007.2 175.879C1001.26 170.264 1001.55 165.745 1008.29 161.408C1053.36 132.386 1098.45 103.403 1143.55 74.4313C1176.87 53.0229 1210.35 31.8442 1243.51 10.1879C1263.04 -2.5604 1282.48 -3.54546 1302.54 8.36866C1303.51 8.94374 1304.57 9.37358 1305.77 10.5338C1324.62 23.2366 1343.29 35.2748 1361.96 47.3179C1367.68 51.0071 1373.36 54.757 1379.13 58.3641C1380.24 59.0576 1382.64 61.7842 1382.11 57.2901C1382.09 42.8342 1382.05 28.3782 1382.05 13.9223C1382.05 3.98838 1385.08 0.889073 1395.2 0.854122C1415.3 0.784657 1435.41 0.831829 1455.52 0.836147C1456.35 0.836323 1457.26 0.672038 1457.99 0.958217C1460.86 2.08675 1463.68 3.36476 1466.84 5.20643C1467.42 8.29004 1467.9 10.7541 1467.9 13.219C1467.95 45.1413 1467.93 77.0638 1467.95 108.986C1467.96 110.775 1468.25 112.563 1468.57 114.692C1471.53 116.983 1474.33 118.933 1477.28 121.14C1484 125.778 1490.57 130.158 1496.9 134.814C1488.12 140.467 1479.52 145.744 1471.07 151.259C1466.15 154.472 1461.48 158.068 1456.7 161.491C1438.76 150.062 1420.79 138.678 1402.89 127.193C1363.85 102.155 1324.85 77.0631 1285.83 52.0111C1284.86 51.3932 1283.77 50.9846 1282.21 50.108C1275.13 43.9145 1275.11 43.8968 1267.87 48.5516C1193.62 96.2907 1119.39 144.055 1045.08 191.714C1041.93 193.737 1038.15 194.794 1034.67 196.301Z" fill="#FF9803"/>
<path d="M1275.55 432.782C1270.64 430.617 1265.48 428.884 1260.87 426.201C1249.53 419.6 1238.44 412.568 1227.26 405.699C1214.11 397.624 1200.98 389.525 1187.83 381.46C1178.7 375.859 1169.6 370.182 1160.36 364.767C1155.1 361.684 1152.36 357.53 1153.53 350.988C1160.92 346.5 1167.95 342.517 1174.77 338.216C1189.18 329.133 1203.49 319.885 1218.14 310.874C1223.4 317.045 1228.3 323.109 1233.42 328.971C1234.06 329.704 1235.93 329.367 1237.5 329.727C1239.79 331.263 1241.96 332.42 1243.8 333.959C1257.24 345.164 1281.55 343.79 1295.63 336.998C1302.69 333.593 1309.3 329.397 1315.08 323.454C1326.25 311.971 1331.6 298.495 1332.69 282.974C1333.69 268.749 1328.53 256.319 1321.23 244.725C1327.58 241.258 1333.66 237.92 1339.54 234.282C1354.07 225.299 1368.52 216.179 1383.38 207.278C1384.82 207.549 1385.88 207.656 1386.95 207.762C1389.15 209.157 1391.35 210.552 1393.71 212.626C1399.13 217.893 1398.75 224.272 1399.05 230.312C1399.81 246.223 1400.37 262.145 1400.99 278.064C1401.45 289.698 1401.86 301.334 1402.34 312.968C1402.79 324.003 1403.16 335.044 1403.81 346.067C1404.37 355.636 1403.48 361.519 1393.9 366.962C1357.57 387.595 1321.5 408.67 1285.25 429.437C1282.33 431.107 1278.8 431.692 1275.55 432.782Z" fill="#FFC55C"/>
<path d="M1217.84 310.705C1203.49 319.885 1189.19 329.134 1174.77 338.216C1167.95 342.518 1160.92 346.5 1153.66 350.577C1153.18 335.606 1153.03 320.687 1152.87 305.767C1152.68 288.919 1152.4 272.072 1152.35 255.224C1152.32 244.239 1152.63 233.254 1152.78 222.269C1152.85 216.649 1156.04 213.058 1160.58 210.433C1196.87 189.451 1233.21 168.548 1269.45 147.487C1276.99 143.109 1283.69 144.531 1290.78 149.649C1300.88 156.144 1310.47 162.226 1320.12 168.213C1333.12 176.271 1346.17 184.239 1359.17 192.275C1367.13 197.193 1375.06 202.166 1383 207.115C1368.52 216.18 1354.07 225.3 1339.54 234.282C1333.66 237.92 1327.58 241.258 1321.03 244.453C1315.06 235.416 1307.25 229.52 1297.76 225.279C1284.14 217.944 1270.17 217.467 1255.64 220.965C1237.06 225.439 1224.12 236.838 1215.95 253.57C1206.58 272.759 1207.09 291.994 1217.84 310.705Z" fill="#FF9803"/>
<path d="M136.659 245.898C142.163 255.612 147.493 265.003 153.603 275.77C153.603 256.988 153.603 239.682 153.603 221.569C158.736 221.569 163.312 221.569 167.888 221.569C173.385 221.569 178.884 221.465 184.377 221.616C186.882 221.685 190.291 220.174 191.022 224.646C191.087 225.044 193.078 225.301 194.18 225.325C197.967 225.407 201.756 225.356 205.708 225.356C205.708 274.026 205.708 322.105 205.708 370.782C193.724 370.782 181.957 370.789 170.191 370.762C169.552 370.761 168.482 370.647 168.341 370.294C166.097 364.685 161.23 366.443 157.22 366.521C154.046 366.582 152.507 365.287 151.047 362.696C143.455 349.218 135.687 335.84 127.047 322.534C127.047 338.453 127.047 354.371 127.047 370.784C114.903 370.784 103.455 370.874 92.0132 370.634C90.9599 370.612 89.9509 368.482 88.0664 366.375C84.6463 366.375 79.9041 366.375 75.0167 366.375C75.0167 317.938 75.0167 270.045 75.0167 221.573C86.0364 221.573 96.8073 221.57 107.578 221.582C108.069 221.582 108.841 221.531 109.01 221.8C112.399 227.214 117.833 224.692 122.446 225.468C123.949 225.721 125.729 226.956 126.535 228.264C130.022 233.929 133.196 239.787 136.659 245.898Z" fill="white"/>
<path d="M498.162 366.551C499.081 367.615 499.999 368.678 501.523 370.441C499.237 370.602 497.851 370.781 496.466 370.784C483.974 370.805 471.482 370.895 458.994 370.687C457.163 370.657 455.409 369.002 453.525 368.395C451.008 367.585 448.362 366.419 445.837 366.563C441.685 366.8 439.164 365.364 436.806 361.982C430.256 352.588 423.327 343.459 415.533 334.371C415.533 346.327 415.533 358.282 415.533 370.785C403.186 370.785 391.588 370.874 379.996 370.635C378.933 370.613 377.914 368.49 375.996 366.373C372.589 366.373 367.849 366.373 362.982 366.373C362.982 317.92 362.982 270.028 362.982 221.809C364.322 221.707 365.436 221.548 366.55 221.548C384.871 221.541 403.205 221.132 421.505 221.751C429.874 222.034 438.187 224.27 446.498 225.775C450.736 226.543 455.001 227.366 459.1 228.656C477.28 234.379 488.719 248.535 489.812 267.545C490.247 275.113 489.958 282.935 488.516 290.353C485.662 305.035 477.265 315.723 462.203 321.049C474.163 336.074 485.843 350.747 497.696 365.839C497.869 366.258 498.162 366.551 498.162 366.551ZM435.173 261.685C428.658 261.002 422.143 260.319 415.509 259.623C415.509 270.109 415.509 279.309 415.509 288.462C425.972 289.677 432.408 287.551 436.149 281.463C440.097 275.039 439.832 268.587 435.173 261.685Z" fill="white"/>
<path d="M916.222 222.121C938.201 221.792 959.907 220.935 981.487 222.211C993.072 222.897 1004.77 226.307 1015.82 230.177C1030.6 235.349 1039.07 246.721 1042.06 262.202C1043.95 272.04 1043.57 281.761 1041.31 291.419C1037.97 305.712 1029.66 315.869 1015.19 321.092C1028.28 337.517 1041.1 353.612 1054.44 370.355C1052.55 370.564 1051.5 370.779 1050.45 370.781C1037.62 370.804 1024.79 370.893 1011.96 370.687C1010.13 370.658 1008.37 368.997 1006.49 368.39C1003.97 367.58 1001.32 366.415 998.795 366.564C994.634 366.808 992.127 365.35 989.77 361.972C983.121 352.442 976.093 343.175 968.337 332.607C968.337 346.077 968.337 358.112 968.337 370.786C956.218 370.786 944.62 370.875 933.029 370.64C931.948 370.618 930.909 368.549 928.883 366.406C925.599 366.406 920.857 366.406 915.977 366.406C915.859 364.714 915.712 363.578 915.712 362.441C915.702 316.616 915.703 270.79 915.714 224.965C915.714 224.137 915.833 223.309 916.222 222.121ZM989.928 280.149C992.75 274.319 992.586 268.589 989.108 263.106C988.364 261.933 987.057 260.358 985.946 260.306C980.073 260.027 974.18 260.175 968.407 260.175C968.407 270.178 968.407 279.255 968.407 288.555C976.948 289.452 984.586 288.818 989.928 280.149Z" fill="white"/>
<path d="M779.8 300.76C779.8 274.282 779.8 248.305 779.8 221.938C813.477 221.938 846.862 221.938 880.003 221.938C883.956 228.827 890.918 223.262 896.221 226.142C896.221 237.112 896.221 248.464 896.221 260.394C874.985 260.394 853.929 260.394 832.658 260.394C832.658 266.404 832.658 271.843 832.658 278.065C835.256 278.065 837.845 278.065 840.433 278.065C850.097 278.065 859.762 277.948 869.422 278.145C871.918 278.196 875.739 276.231 876.355 281.222C876.394 281.546 878.449 281.765 879.572 281.786C883.223 281.857 886.877 281.813 890.991 281.813C890.991 292.615 890.991 303.143 890.991 314.139C871.688 314.139 852.443 314.139 832.819 314.139C832.819 320.122 832.819 325.65 832.819 331.736C840.584 331.736 848.202 331.736 855.821 331.736C862.319 331.736 868.819 331.647 875.314 331.784C877.634 331.833 880.851 330.409 881.463 334.658C881.524 335.085 883.442 335.46 884.509 335.487C888.306 335.587 892.107 335.526 896.266 335.526C896.266 347.358 896.266 358.738 896.266 370.452C895.056 370.576 893.95 370.787 892.843 370.788C861.687 370.805 830.53 370.847 799.375 370.689C797.51 370.68 795.653 369.052 793.793 368.177C793.953 367.583 794.112 366.99 794.272 366.396C789.665 366.396 785.059 366.396 779.8 366.396C779.8 344.431 779.8 322.846 779.8 300.76Z" fill="white"/>
<path d="M498.671 366.488C498.162 366.551 497.869 366.258 497.819 366.165C498.785 364.125 500.058 362.268 500.779 360.216C516.46 315.65 532.137 271.083 547.606 226.443C548.933 222.614 550.567 221.29 554.608 221.463C562.753 221.813 570.927 221.441 579.081 221.674C580.701 221.721 582.241 223.25 583.895 223.901C585.466 224.519 587.129 225.257 588.765 225.293C598.443 225.507 598.436 225.446 601.708 234.566C617.309 278.051 632.916 321.534 648.512 365.021C649.112 366.695 649.612 368.406 650.376 370.771C637.282 370.771 624.853 370.774 612.425 370.758C611.941 370.758 611.115 370.697 611.024 370.451C608.612 363.961 602.975 367.416 598.809 366.3C597.139 365.853 595.022 364.422 594.463 362.93C591.896 356.091 589.809 349.072 587.425 341.735C579.922 341.735 572.452 341.589 564.999 341.886C563.829 341.932 562.167 343.792 561.706 345.145C559.19 352.537 557.116 360.082 554.538 367.451C554.049 368.85 551.999 370.623 550.636 370.652C538.665 370.902 526.687 370.797 514.229 370.797C514.329 369.319 514.409 368.14 514.526 366.425C509.402 366.425 504.291 366.425 498.671 366.488ZM576.146 299.952C575.728 298.562 575.31 297.171 574.892 295.78C574.615 295.845 574.339 295.909 574.062 295.974C573.355 298.796 572.648 301.618 571.886 304.661C573.158 304.804 573.958 304.957 574.76 304.965C575.393 304.971 576.028 304.8 576.682 304.705C576.773 304.08 576.946 303.589 576.887 303.129C576.782 302.318 576.536 301.525 576.146 299.952Z" fill="white"/>
<path d="M228.913 267.76C228.913 252.293 228.913 237.326 228.913 221.958C230.655 221.82 232.081 221.61 233.507 221.609C264.161 221.59 294.816 221.583 325.47 221.623C327.404 221.626 329.942 220.622 330.448 224.102C330.532 224.677 332.586 225.279 333.751 225.326C337.545 225.481 341.349 225.384 345.453 225.384C345.453 237.293 345.453 248.691 345.453 260.716C324.287 260.716 303.247 260.716 281.926 260.716C281.926 268.081 281.926 274.825 281.926 282.292C286.748 282.292 291.504 282.292 296.259 282.292C303.256 282.292 310.254 282.229 317.25 282.332C319.284 282.362 322.166 281.123 322.434 285.101C322.462 285.513 325.351 285.979 326.919 286.002C337.745 286.161 337.746 286.125 337.746 297.12C337.746 304.9 337.746 312.68 337.746 320.912C318.879 320.912 300.629 320.912 281.795 320.912C281.795 337.582 281.795 353.798 281.795 370.8C275.482 370.8 269.732 370.8 263.982 370.8C258.818 370.8 253.637 371.033 248.497 370.678C246.582 370.547 244.762 369.042 242.898 368.164C243.057 367.571 243.216 366.978 243.375 366.385C238.766 366.385 234.158 366.385 228.913 366.385C228.913 333.42 228.913 300.84 228.913 267.76Z" fill="white"/>
<path d="M674.019 290.76C674.019 280.632 674.019 271.003 674.019 260.955C666.16 260.955 658.729 260.955 651.113 260.955C650.621 259.268 650.228 257.921 649.769 256.345C645.084 256.345 640.619 256.345 635.782 256.345C635.782 244.795 635.782 233.562 635.782 221.849C637.385 221.764 638.979 221.606 640.573 221.606C675.398 221.591 710.224 221.588 745.049 221.61C747.2 221.612 749.914 220.718 750.191 224.469C750.219 224.847 752.156 225.314 753.218 225.343C757.015 225.45 760.817 225.385 764.962 225.385C764.962 237.338 764.962 248.897 764.962 260.873C752.257 260.873 739.817 260.873 726.891 260.873C726.891 297.522 726.891 333.76 726.891 370.8C722.163 370.8 717.912 370.8 713.661 370.8C706.996 370.8 700.322 370.986 693.671 370.683C691.754 370.595 689.902 369.101 688.02 368.251C688.182 367.639 688.345 367.026 688.508 366.414C683.9 366.414 679.293 366.414 674.019 366.414C674.019 341.097 674.019 316.179 674.019 290.76Z" fill="white"/>
<path d="M1064.26 354.718C1064.26 310.165 1064.26 266.105 1064.26 221.797C1076.61 221.797 1088.38 221.797 1100.13 221.797C1103.81 229.369 1111.24 222.927 1116.4 226.27C1116.4 274.008 1116.4 322.036 1116.4 370.435C1104.16 370.435 1092.11 370.435 1079.85 370.435C1079.52 369.259 1079.18 368.027 1078.72 366.407C1074.15 366.407 1069.55 366.407 1064.26 366.407C1064.26 362.412 1064.26 358.811 1064.26 354.718Z" fill="white"/>
<path d="M51.6381 226.375C51.8027 274.569 51.8027 322.337 51.8027 370.451C39.5591 370.451 27.6392 370.451 15.3469 370.451C15.0207 369.399 14.6057 368.061 14.0752 366.351C9.51349 366.351 4.90161 366.351 0 366.351C0 318.076 0 270.199 0 221.568C5.96324 221.568 11.8839 221.568 17.8046 221.568C22.4682 221.568 27.1319 221.552 31.7954 221.575C33.8624 221.584 36.1964 220.939 36.7411 224.218C36.8324 224.768 38.912 225.214 40.1055 225.313C43.8866 225.626 47.6831 225.751 51.6381 226.375Z" fill="white"/>
<path d="M1456.81 161.769C1461.48 158.068 1466.15 154.472 1471.07 151.259C1479.52 145.744 1488.12 140.468 1497.21 134.917C1513.04 144.425 1528.32 154.106 1543.84 164.075C1545.98 167.417 1546.77 170.741 1543.81 173.334C1534.36 181.612 1527 192.542 1514.38 196.852C1510.34 195.08 1506.01 193.78 1502.32 191.453C1487.08 181.82 1472.03 171.876 1456.81 161.769Z" fill="#FFC55C"/>
<path d="M1275.71 433.123C1278.8 431.693 1282.33 431.107 1285.25 429.438C1321.5 408.67 1357.57 387.595 1393.9 366.962C1403.48 361.519 1404.37 355.637 1403.81 346.067C1403.16 335.044 1402.79 324.003 1402.34 312.968C1401.86 301.334 1401.45 289.698 1400.99 278.064C1400.37 262.146 1399.81 246.224 1399.05 230.312C1398.75 224.272 1399.13 217.893 1393.83 212.941C1402.7 213.792 1408.2 222.059 1408.27 229.307C1408.42 242.78 1409.42 256.242 1410 269.711C1410.6 283.449 1411.06 297.193 1411.69 310.93C1412.32 324.532 1413.15 338.124 1413.79 351.726C1414.17 359.935 1412.16 366.545 1404.1 371.116C1367.75 391.735 1331.6 412.705 1295.48 433.745C1288.63 437.739 1282.34 437.951 1275.71 433.123Z" fill="#162C48"/>
<path d="M1034.86 196.544C1038.15 194.794 1041.93 193.737 1045.08 191.714C1119.39 144.055 1193.62 96.2907 1267.88 48.5516C1275.12 43.8968 1275.13 43.9145 1281.87 50.0061C1241.18 76.5786 1200.33 102.892 1159.46 129.184C1124.19 151.873 1088.9 174.533 1053.63 197.216C1046.16 202.019 1041.33 201.927 1034.86 196.544Z" fill="#172B44"/>
<path d="M1477.13 120.883C1474.33 118.933 1471.53 116.983 1468.7 114.292C1468.68 79.4672 1468.72 45.3839 1468.69 11.3006C1468.69 8.6323 1468.59 6.22034 1472.21 6.19531C1477.32 8.08125 1478.23 12.1225 1478.23 17.0154C1478.17 50.9275 1478.24 84.8398 1478.11 119.309C1477.67 120.205 1477.4 120.544 1477.13 120.883Z" fill="#0C2341"/>
<path d="M1514.66 197.093C1527 192.542 1534.36 181.612 1543.81 173.334C1546.77 170.741 1545.98 167.417 1544.01 163.785C1544.33 162.955 1544.71 162.703 1545.08 162.451C1546.99 163.643 1548.86 164.878 1550.8 166.018C1556.64 169.46 1557.61 174.298 1552.82 179.008C1546.32 185.399 1539.6 191.597 1532.68 197.524C1527.31 202.122 1521.49 201.802 1514.66 197.093Z" fill="#182D47"/>
<path d="M1383.38 207.279C1375.06 202.166 1367.13 197.193 1359.17 192.275C1346.17 184.239 1333.12 176.27 1320.12 168.213C1310.47 162.226 1300.88 156.144 1291.09 149.886C1295.21 151.517 1299.76 152.915 1303.72 155.295C1320.75 165.531 1337.65 175.996 1354.52 186.497C1365.36 193.245 1376.08 200.2 1386.9 207.413C1385.88 207.656 1384.82 207.549 1383.38 207.279Z" fill="#6D6B64"/>
<path d="M1381.76 57.1303C1382.64 61.7844 1380.24 59.0578 1379.13 58.3643C1373.36 54.7572 1367.68 51.0073 1361.96 47.3181C1343.29 35.275 1324.62 23.2368 1305.93 10.8418C1308.62 11.5651 1311.58 12.2464 1314 13.7834C1336.53 28.0952 1358.96 42.554 1381.76 57.1303Z" fill="#0C2341"/>
<path d="M1544.95 162.146C1544.71 162.703 1544.33 162.956 1543.78 163.497C1528.32 154.106 1513.04 144.425 1497.44 134.641C1490.57 130.158 1484 125.778 1477.28 121.141C1477.4 120.544 1477.67 120.205 1478.25 119.746C1497.87 131.887 1517.18 144.143 1536.49 156.413C1539.28 158.191 1542.04 160.029 1544.95 162.146Z" fill="#182D47"/>
<path d="M1471.99 5.93743C1468.59 6.22012 1468.69 8.63208 1468.69 11.3004C1468.72 45.3837 1468.68 79.467 1468.54 113.951C1468.25 112.563 1467.96 110.775 1467.95 108.986C1467.93 77.0639 1467.95 45.1415 1467.9 13.2191C1467.9 10.7542 1467.42 8.29015 1467.14 5.43879C1468.67 5.26117 1470.22 5.47047 1471.99 5.93743Z" fill="#757A7F"/>
<path d="M1297.76 225.279C1289.55 224.874 1281 223.597 1272.6 224.257C1259.52 225.284 1248.32 230.991 1238.79 240.329C1228.06 250.857 1221.76 263.331 1219.94 278.166C1218.08 293.359 1222.01 307.019 1230.81 319.415C1233 322.512 1235.03 325.733 1237.18 329.211C1235.93 329.367 1234.06 329.705 1233.42 328.971C1228.3 323.11 1223.4 317.045 1218.14 310.874C1207.09 291.994 1206.58 272.759 1215.95 253.57C1224.12 236.838 1237.06 225.439 1255.64 220.965C1270.17 217.467 1284.14 217.944 1297.76 225.279Z" fill="#172B44"/>
</svg>
