<svg width="1557" height="437" viewBox="0 0 1557 437" fill="none" xmlns="http://www.w3.org/2000/svg">
<path d="M1034.86 196.541C1031.06 194.717 1026.81 193.483 1023.58 190.941C1017.85 186.422 1012.71 181.149 1007.38 176.118C1001.45 170.504 1001.74 165.985 1008.47 161.647C1053.54 132.626 1098.64 103.643 1143.74 74.6708C1177.06 53.2625 1210.54 32.0837 1243.7 10.4274C1263.22 -2.3209 1282.66 -3.30596 1302.73 8.60816C1303.7 9.18324 1304.76 9.61309 1305.95 10.7733C1324.81 23.4761 1343.48 35.5143 1362.15 47.5574C1367.86 51.2466 1373.55 54.9965 1379.32 58.6036C1380.43 59.2971 1382.82 62.0237 1382.3 57.5296C1382.28 43.0737 1382.24 28.6177 1382.24 14.1618C1382.23 4.22788 1385.27 1.12857 1395.39 1.09362C1415.49 1.02416 1435.6 1.07133 1455.7 1.07565C1456.53 1.07582 1457.45 0.91154 1458.18 1.19772C1461.05 2.32625 1463.87 3.60426 1467.03 5.44593C1467.61 8.52954 1468.08 10.9936 1468.09 13.4585C1468.14 45.3808 1468.11 77.3033 1468.14 109.226C1468.14 111.014 1468.44 112.802 1468.76 114.931C1471.72 117.222 1474.52 119.172 1477.47 121.38C1484.19 126.017 1490.75 130.397 1497.08 135.053C1488.31 140.707 1479.71 145.983 1471.26 151.499C1466.34 154.711 1461.67 158.307 1456.89 161.731C1438.95 150.301 1420.98 138.918 1403.07 127.433C1364.04 102.395 1325.04 77.3026 1286.01 52.2506C1285.05 51.6327 1283.95 51.2241 1282.4 50.3475C1275.31 44.154 1275.3 44.1363 1268.06 48.7911C1193.81 96.5302 1119.57 144.295 1045.27 191.953C1042.12 193.976 1038.34 195.033 1034.86 196.541Z" fill="#FF9803"/>
<path d="M1275.74 433.021C1270.83 430.856 1265.67 429.124 1261.06 426.44C1249.72 419.84 1238.63 412.808 1227.45 405.938C1214.3 397.863 1201.17 389.764 1188.02 381.7C1178.88 376.099 1169.79 370.422 1160.55 365.007C1155.29 361.924 1152.55 357.77 1153.71 351.228C1161.11 346.74 1168.14 342.757 1174.96 338.455C1189.37 329.373 1203.68 320.124 1218.32 311.113C1223.59 317.285 1228.48 323.349 1233.61 329.211C1234.25 329.944 1236.12 329.607 1237.69 329.967C1239.98 331.503 1242.14 332.66 1243.99 334.198C1257.43 345.404 1281.74 344.029 1295.82 337.238C1302.88 333.833 1309.48 329.636 1315.27 323.693C1326.44 312.211 1331.78 298.735 1332.87 283.214C1333.87 268.989 1328.72 256.558 1321.42 244.965C1327.77 241.497 1333.84 238.16 1339.73 234.522C1354.26 225.539 1368.71 216.419 1383.57 207.518C1385.01 207.789 1386.07 207.895 1387.13 208.002C1389.34 209.397 1391.54 210.792 1393.9 212.865C1399.32 218.132 1398.94 224.511 1399.23 230.552C1400 246.463 1400.55 262.385 1401.18 278.303C1401.63 289.938 1402.05 301.574 1402.52 313.208C1402.97 324.243 1403.34 335.283 1403.99 346.307C1404.56 355.876 1403.66 361.759 1394.08 367.201C1357.76 387.835 1321.69 408.91 1285.44 429.677C1282.52 431.347 1278.99 431.932 1275.74 433.021Z" fill="#FFC55C"/>
<path d="M1218.03 310.944C1203.68 320.125 1189.37 329.373 1174.96 338.455C1168.14 342.757 1161.11 346.74 1153.85 350.816C1153.37 335.846 1153.22 320.926 1153.05 306.007C1152.87 289.159 1152.59 272.311 1152.54 255.463C1152.5 244.479 1152.82 233.493 1152.96 222.508C1153.04 216.889 1156.23 213.298 1160.77 210.672C1197.06 189.691 1233.4 168.788 1269.64 147.726C1277.17 143.349 1283.87 144.77 1290.96 149.889C1301.06 156.384 1310.66 162.466 1320.31 168.453C1333.31 176.51 1346.35 184.479 1359.36 192.515C1367.32 197.433 1375.25 202.406 1383.19 207.354C1368.71 216.419 1354.26 225.539 1339.73 234.522C1333.84 238.16 1327.77 241.497 1321.22 244.693C1315.25 235.655 1307.44 229.76 1297.95 225.519C1284.33 218.183 1270.36 217.707 1255.83 221.205C1237.25 225.679 1224.31 237.077 1216.14 253.809C1206.77 272.999 1207.28 292.234 1218.03 310.944Z" fill="#FF9803"/>
<path d="M136.846 246.137C142.351 255.851 147.681 265.243 153.791 276.01C153.791 257.228 153.791 239.921 153.791 221.809C158.923 221.809 163.499 221.809 168.075 221.809C173.572 221.809 179.072 221.705 184.565 221.856C187.069 221.924 190.479 220.413 191.21 224.886C191.275 225.284 193.265 225.54 194.368 225.564C198.155 225.646 201.944 225.596 205.896 225.596C205.896 274.265 205.896 322.345 205.896 371.021C193.912 371.021 182.145 371.029 170.378 371.002C169.74 371 168.669 370.887 168.528 370.534C166.285 364.924 161.418 366.683 157.408 366.76C154.234 366.821 152.695 365.526 151.235 362.935C143.642 349.458 135.874 336.079 127.235 322.773C127.235 338.692 127.235 354.611 127.235 371.024C115.09 371.024 103.642 371.114 92.2009 370.873C91.1476 370.851 90.1386 368.721 88.2541 366.614C84.834 366.614 80.0917 366.614 75.2044 366.614C75.2044 318.177 75.2044 270.285 75.2044 221.813C86.224 221.813 96.995 221.81 107.766 221.821C108.257 221.822 109.029 221.771 109.197 222.04C112.587 227.454 118.021 224.931 122.634 225.707C124.136 225.96 125.917 227.195 126.722 228.504C130.21 234.169 133.384 240.027 136.846 246.137Z" fill="#020202"/>
<path d="M498.35 366.791C499.268 367.854 500.187 368.917 501.71 370.681C499.425 370.841 498.039 371.021 496.653 371.023C484.162 371.045 471.669 371.135 459.181 370.927C457.35 370.896 455.597 369.242 453.712 368.635C451.196 367.824 448.55 366.659 446.025 366.803C441.873 367.039 439.352 365.603 436.994 362.222C430.444 352.828 423.515 343.698 415.72 334.611C415.72 346.566 415.72 358.522 415.72 371.024C403.374 371.024 391.775 371.114 380.184 370.875C379.121 370.853 378.101 368.729 376.183 366.612C372.777 366.612 368.037 366.612 363.169 366.612C363.169 318.16 363.169 270.267 363.169 222.048C364.509 221.946 365.624 221.788 366.738 221.788C385.058 221.78 403.393 221.372 421.693 221.991C430.061 222.273 438.375 224.51 446.686 226.015C450.923 226.782 455.189 227.605 459.287 228.895C477.468 234.618 488.907 248.774 490 267.784C490.435 275.352 490.146 283.175 488.704 290.593C485.85 305.275 477.453 315.963 462.391 321.288C474.351 336.314 486.031 350.987 497.884 366.078C498.057 366.497 498.35 366.791 498.35 366.791ZM435.361 261.925C428.846 261.242 422.331 260.558 415.697 259.863C415.697 270.348 415.697 279.548 415.697 288.702C426.159 289.916 432.596 287.79 436.337 281.703C440.284 275.279 440.019 268.826 435.361 261.925Z" fill="#020202"/>
<path d="M916.41 222.36C938.389 222.031 960.095 221.174 981.675 222.45C993.26 223.136 1004.96 226.546 1016.01 230.417C1030.79 235.589 1039.26 246.961 1042.24 262.442C1044.14 272.28 1043.76 282.001 1041.5 291.659C1038.15 305.951 1029.85 316.109 1015.38 321.331C1028.46 337.756 1041.29 353.852 1054.63 370.594C1052.73 370.803 1051.69 371.018 1050.64 371.02C1037.81 371.043 1024.97 371.132 1012.15 370.926C1010.31 370.897 1008.56 369.237 1006.67 368.629C1004.16 367.819 1001.51 366.654 998.982 366.803C994.822 367.048 992.315 365.589 989.958 362.211C983.308 352.681 976.281 343.414 968.525 332.847C968.525 346.316 968.525 358.351 968.525 371.026C956.406 371.026 944.808 371.114 933.216 370.88C932.136 370.858 931.097 368.788 929.07 366.645C925.787 366.645 921.045 366.645 916.164 366.645C916.047 364.954 915.9 363.817 915.9 362.681C915.889 316.855 915.891 271.03 915.901 225.204C915.901 224.376 916.02 223.548 916.41 222.36ZM990.116 280.389C992.937 274.558 992.774 268.828 989.295 263.345C988.551 262.173 987.245 260.598 986.134 260.545C980.261 260.266 974.368 260.414 968.594 260.414C968.594 270.418 968.594 279.494 968.594 288.795C977.136 289.691 984.774 289.057 990.116 280.389Z" fill="#020202"/>
<path d="M779.987 301C779.987 274.522 779.987 248.544 779.987 222.178C813.665 222.178 847.049 222.178 880.191 222.178C884.143 229.067 891.106 223.502 896.408 226.382C896.408 237.352 896.408 248.703 896.408 260.634C875.172 260.634 854.116 260.634 832.846 260.634C832.846 266.644 832.846 272.083 832.846 278.305C835.444 278.305 838.032 278.305 840.621 278.305C850.284 278.305 859.95 278.188 869.61 278.385C872.106 278.436 875.927 276.471 876.542 281.461C876.582 281.786 878.637 282.005 879.759 282.026C883.411 282.097 887.064 282.053 891.179 282.053C891.179 292.855 891.179 303.383 891.179 314.379C871.876 314.379 852.631 314.379 833.007 314.379C833.007 320.362 833.007 325.89 833.007 331.976C840.771 331.976 848.39 331.976 856.009 331.976C862.507 331.976 869.006 331.886 875.501 332.024C877.822 332.073 881.039 330.648 881.651 334.897C881.712 335.324 883.63 335.699 884.696 335.727C888.493 335.827 892.294 335.766 896.453 335.766C896.453 347.598 896.453 358.978 896.453 370.692C895.244 370.816 894.137 371.027 893.031 371.027C861.874 371.045 830.718 371.086 799.562 370.929C797.697 370.92 795.841 369.292 793.981 368.417C794.14 367.823 794.3 367.229 794.46 366.636C789.853 366.636 785.246 366.636 779.987 366.636C779.987 344.671 779.987 323.085 779.987 301Z" fill="#040404"/>
<path d="M498.859 366.728C498.35 366.791 498.057 366.497 498.007 366.405C498.973 364.365 500.246 362.507 500.967 360.456C516.648 315.89 532.325 271.322 547.794 226.683C549.12 222.853 550.755 221.529 554.796 221.703C562.941 222.052 571.115 221.68 579.268 221.914C580.889 221.96 582.429 223.49 584.083 224.14C585.653 224.758 587.316 225.497 588.953 225.533C598.63 225.746 598.624 225.685 601.896 234.805C617.496 278.291 633.104 321.774 648.699 365.261C649.3 366.935 649.8 368.645 650.563 371.011C637.47 371.011 625.041 371.014 612.612 370.998C612.129 370.997 611.303 370.937 611.211 370.69C608.799 364.2 603.163 367.656 598.997 366.54C597.326 366.092 595.21 364.661 594.65 363.17C592.084 356.331 589.997 349.312 587.613 341.974C580.11 341.974 572.64 341.828 565.187 342.125C564.017 342.172 562.355 344.032 561.894 345.385C559.377 352.777 557.303 360.321 554.726 367.691C554.237 369.089 552.187 370.862 550.824 370.891C538.853 371.142 526.874 371.036 514.417 371.036C514.517 369.558 514.597 368.379 514.713 366.665C509.589 366.665 504.479 366.665 498.859 366.728ZM576.334 300.192C575.916 298.801 575.498 297.41 575.08 296.02C574.803 296.084 574.526 296.149 574.25 296.214C573.543 299.036 572.836 301.858 572.074 304.901C573.346 305.044 574.146 305.197 574.947 305.205C575.581 305.211 576.216 305.04 576.87 304.944C576.96 304.319 577.134 303.829 577.074 303.368C576.97 302.557 576.724 301.764 576.334 300.192Z" fill="#020202"/>
<path d="M229.1 268C229.1 252.533 229.1 237.565 229.1 222.198C230.842 222.06 232.268 221.85 233.695 221.849C264.349 221.83 295.004 221.822 325.658 221.863C327.592 221.865 330.13 220.861 330.636 224.341C330.72 224.917 332.773 225.518 333.939 225.566C337.733 225.72 341.537 225.624 345.64 225.624C345.64 237.532 345.64 248.931 345.64 260.956C324.475 260.956 303.435 260.956 282.114 260.956C282.114 268.32 282.114 275.064 282.114 282.531C286.936 282.531 291.691 282.531 296.447 282.531C303.444 282.531 310.442 282.468 317.438 282.571C319.471 282.601 322.354 281.363 322.622 285.34C322.65 285.753 325.539 286.218 327.107 286.241C337.933 286.401 337.933 286.365 337.934 297.36C337.934 305.14 337.934 312.92 337.934 321.152C319.067 321.152 300.816 321.152 281.982 321.152C281.982 337.821 281.982 354.038 281.982 371.04C275.67 371.04 269.92 371.04 264.17 371.039C259.005 371.039 253.825 371.272 248.684 370.918C246.77 370.786 244.949 369.282 243.086 368.403C243.245 367.81 243.404 367.217 243.563 366.624C238.954 366.624 234.345 366.624 229.1 366.624C229.1 333.66 229.1 301.08 229.1 268Z" fill="#030303"/>
<path d="M674.206 291C674.206 280.871 674.206 271.243 674.206 261.194C666.348 261.194 658.917 261.194 651.301 261.194C650.809 259.508 650.416 258.16 649.956 256.585C645.271 256.585 640.806 256.585 635.97 256.585C635.97 245.034 635.97 233.801 635.97 222.088C637.573 222.003 639.167 221.846 640.76 221.845C675.586 221.831 710.411 221.827 745.237 221.85C747.387 221.851 750.101 220.957 750.379 224.708C750.407 225.086 752.344 225.553 753.406 225.583C757.203 225.689 761.005 225.624 765.149 225.624C765.149 237.577 765.149 249.136 765.149 261.112C752.444 261.112 740.005 261.112 727.078 261.112C727.078 297.761 727.078 334 727.078 371.04C722.35 371.04 718.1 371.04 713.849 371.04C707.184 371.04 700.51 371.225 693.859 370.922C691.942 370.835 690.09 369.34 688.208 368.491C688.37 367.878 688.533 367.266 688.695 366.653C684.088 366.653 679.48 366.653 674.206 366.653C674.206 341.336 674.206 316.418 674.206 291Z" fill="#030303"/>
<path d="M1064.45 354.957C1064.45 310.404 1064.45 266.345 1064.45 222.036C1076.8 222.036 1088.57 222.036 1100.31 222.036C1103.99 229.609 1111.43 223.166 1116.59 226.509C1116.59 274.247 1116.59 322.275 1116.59 370.675C1104.35 370.675 1092.3 370.675 1080.04 370.675C1079.71 369.499 1079.36 368.266 1078.91 366.647C1074.34 366.647 1069.73 366.647 1064.45 366.647C1064.45 362.651 1064.45 359.051 1064.45 354.957Z" fill="#050505"/>
<path d="M51.8258 226.614C51.9904 274.808 51.9904 322.576 51.9904 370.69C39.7468 370.69 27.8269 370.69 15.5346 370.69C15.2084 369.639 14.7934 368.301 14.2629 366.591C9.70117 366.591 5.08929 366.591 0.187683 366.591C0.187683 318.315 0.187683 270.439 0.187683 221.807C6.15092 221.807 12.0716 221.807 17.9923 221.807C22.6559 221.807 27.3196 221.791 31.9831 221.814C34.0501 221.824 36.3841 221.178 36.9288 224.457C37.0201 225.007 39.0996 225.454 40.2932 225.552C44.0742 225.865 47.8708 225.99 51.8258 226.614Z" fill="#020202"/>
<path d="M1457 162.008C1461.67 158.307 1466.34 154.712 1471.26 151.499C1479.71 145.983 1488.31 140.707 1497.39 135.157C1513.22 144.664 1528.51 154.345 1544.02 164.314C1546.17 167.657 1546.96 170.981 1544 173.573C1534.55 181.852 1527.19 192.781 1514.56 197.091C1510.53 195.319 1506.2 194.02 1502.51 191.692C1487.27 182.059 1472.22 172.115 1457 162.008Z" fill="#FFC55C"/>
<path d="M1275.89 433.363C1278.99 431.932 1282.52 431.347 1285.44 429.677C1321.69 408.91 1357.76 387.835 1394.08 367.202C1403.66 361.759 1404.56 355.876 1404 346.307C1403.34 335.283 1402.97 324.243 1402.52 313.208C1402.05 301.574 1401.63 289.938 1401.18 278.304C1400.55 262.385 1400 246.463 1399.23 230.552C1398.94 224.512 1399.32 218.133 1394.02 213.181C1402.89 214.032 1408.38 222.299 1408.46 229.547C1408.61 243.019 1409.6 256.482 1410.19 269.95C1410.78 283.689 1411.24 297.433 1411.88 311.169C1412.51 324.771 1413.34 338.364 1413.98 351.966C1414.36 360.175 1412.35 366.785 1404.29 371.356C1367.94 391.975 1331.78 412.945 1295.67 433.985C1288.82 437.978 1282.53 438.19 1275.89 433.363Z" fill="#162C48"/>
<path d="M1035.05 196.783C1038.34 195.033 1042.12 193.976 1045.27 191.953C1119.57 144.295 1193.81 96.5302 1268.06 48.7911C1275.3 44.1363 1275.31 44.154 1282.05 50.2456C1241.37 76.8181 1200.51 103.132 1159.65 129.423C1124.38 152.113 1089.09 174.773 1053.82 197.455C1046.35 202.258 1041.52 202.166 1035.05 196.783Z" fill="#172B44"/>
<path d="M1477.31 121.122C1474.52 119.172 1471.72 117.222 1468.88 114.531C1468.87 79.7065 1468.91 45.6232 1468.88 11.5399C1468.87 8.87156 1468.78 6.4596 1472.4 6.43457C1477.5 8.3205 1478.42 12.3618 1478.41 17.2547C1478.36 51.1668 1478.43 85.079 1478.29 119.548C1477.86 120.444 1477.59 120.783 1477.31 121.122Z" fill="#0C2341"/>
<path d="M1514.85 197.332C1527.19 192.781 1534.55 181.852 1544 173.573C1546.96 170.981 1546.17 167.657 1544.2 164.025C1544.52 163.195 1544.89 162.943 1545.27 162.69C1547.17 163.882 1549.05 165.118 1550.99 166.258C1556.83 169.7 1557.8 174.537 1553.01 179.247C1546.51 185.639 1539.79 191.836 1532.87 197.763C1527.49 202.361 1521.68 202.041 1514.85 197.332Z" fill="#182D47"/>
<path d="M1383.57 207.518C1375.25 202.406 1367.32 197.433 1359.36 192.515C1346.35 184.479 1333.31 176.51 1320.31 168.452C1310.66 162.466 1301.06 156.383 1291.28 150.125C1295.4 151.756 1299.95 153.154 1303.91 155.534C1320.94 165.77 1337.83 176.236 1354.71 186.736C1365.55 193.485 1376.26 200.44 1387.09 207.652C1386.07 207.895 1385.01 207.789 1383.57 207.518Z" fill="#6D6B64"/>
<path d="M1381.95 57.3695C1382.82 62.0237 1380.43 59.297 1379.32 58.6036C1373.55 54.9965 1367.86 51.2466 1362.15 47.5573C1343.48 35.5143 1324.81 23.4761 1306.12 11.0811C1308.81 11.8044 1311.77 12.4856 1314.19 14.0227C1336.71 28.3344 1359.15 42.7932 1381.95 57.3695Z" fill="#0C2341"/>
<path d="M1545.14 162.385C1544.89 162.943 1544.52 163.195 1543.97 163.737C1528.51 154.345 1513.22 144.664 1497.63 134.88C1490.75 130.397 1484.19 126.017 1477.47 121.38C1477.59 120.783 1477.86 120.444 1478.44 119.985C1498.06 132.126 1517.37 144.383 1536.67 156.652C1539.47 158.43 1542.23 160.269 1545.14 162.385Z" fill="#182D47"/>
<path d="M1472.18 6.17693C1468.78 6.45962 1468.87 8.87159 1468.88 11.5399C1468.91 45.6232 1468.87 79.7065 1468.72 114.19C1468.44 112.802 1468.14 111.014 1468.14 109.226C1468.11 77.3034 1468.14 45.381 1468.09 13.4586C1468.08 10.9937 1467.61 8.52965 1467.33 5.67829C1468.86 5.50068 1470.41 5.70997 1472.18 6.17693Z" fill="#757A7F"/>
<path d="M1297.95 225.519C1289.74 225.114 1281.19 223.836 1272.78 224.496C1259.71 225.523 1248.5 231.23 1238.98 240.568C1228.24 251.096 1221.95 263.57 1220.13 278.406C1218.26 293.599 1222.19 307.258 1230.99 319.655C1233.19 322.751 1235.21 325.973 1237.37 329.451C1236.12 329.607 1234.25 329.944 1233.61 329.211C1228.48 323.349 1223.59 317.285 1218.32 311.113C1207.28 292.234 1206.77 272.999 1216.14 253.809C1224.31 237.077 1237.25 225.678 1255.83 221.205C1270.36 217.707 1284.33 218.183 1297.95 225.519Z" fill="#172B44"/>
</svg>
