<svg width="231" height="178" viewBox="0 0 231 178" fill="none" xmlns="http://www.w3.org/2000/svg">
<path d="M162.662 86.1576C184.127 61.8057 205.363 37.7257 227.724 12.3701C228.926 17.8525 230.645 22.0961 230.666 26.3483C230.872 67.5094 230.911 108.673 230.738 149.834C230.668 166.274 219.165 177.279 202.268 177.374C175.772 177.523 149.274 177.416 122.777 177.416C92.1135 177.417 61.4416 176.983 30.79 177.585C13.6514 177.922 -0.172745 166.691 0.00163172 146.866C0.346069 107.707 0.00491188 68.5415 0.223281 29.3802C0.252684 24.1081 1.87974 18.8448 2.767 13.5775C3.31555 13.5942 3.8641 13.6109 4.41264 13.6276C17.2959 28.236 30.1827 42.8412 43.0616 57.4535C56.3933 72.5796 69.6935 87.7335 83.0505 102.837C101.831 124.074 129.414 123.933 148.213 102.55C152.944 97.1682 157.693 91.8024 162.662 86.1576Z" fill="#152230"/>
<path d="M100.703 0.0117601C134.686 0.0123091 168.169 -0.0250443 201.651 0.0649217C205.54 0.0753587 209.427 0.791667 214.645 1.31388C211.987 4.3314 210.289 6.25987 208.59 8.1876C184.252 35.8047 159.928 63.4355 135.568 91.0331C123.093 105.166 107.81 105.099 95.3888 90.9886C71.3961 63.7327 47.3753 36.5016 23.3686 9.25791C21.4156 7.04161 19.4816 4.80851 16.5415 1.44102C21.4105 0.871745 25.0733 0.0895189 28.7398 0.0721849C52.5604 -0.0406691 76.3818 0.0127981 100.703 0.0117601Z" fill="#152230"/>
</svg>
