<svg width="157" height="231" viewBox="0 0 157 231" fill="none" xmlns="http://www.w3.org/2000/svg">
<path d="M24.888 0.403055C38.316 0.258005 51.3098 0.0781648 64.304 0.0421468C84.469 -0.0137462 104.634 -0.0138604 124.799 0.0406896C145.275 0.0960946 156.543 11.4499 156.555 32.0195C156.58 75.3495 156.563 118.679 156.563 162.009C156.563 163.653 156.563 165.296 156.563 167.369C104.305 167.369 52.4567 167.369 0.341177 167.369C0.225881 165.941 0.030782 164.65 0.03034 163.358C0.01502 119.028 -0.0383245 74.6982 0.0481165 30.3685C0.0798855 14.0695 9.24207 3.0333 24.888 0.403055ZM74.6117 18.4967C69.7716 22.1713 68.5727 26.1685 71.0636 30.3257C73.3225 34.0954 77.9443 35.5092 81.85 33.6251C85.6868 31.7742 87.5931 27.5934 86.3798 23.6908C84.9217 19.0009 80.967 17.0419 74.6117 18.4967Z" fill="#152230"/>
<path d="M25.8392 184.694C69.4708 184.694 112.602 184.694 156.307 184.694C156.472 194.775 158.068 204.644 153.899 213.918C149.284 224.184 141.052 230.337 129.727 230.438C95.4099 230.742 61.0863 230.751 26.7691 230.441C13.2913 230.319 2.19727 220.024 0.727723 206.675C-0.0454104 199.652 0.591111 192.474 0.591111 184.694C8.79039 184.694 17.0648 184.694 25.8392 184.694ZM77.5894 214.959C84.2558 214.162 87.8732 209.987 86.5154 204.657C85.4731 200.566 81.9057 197.972 77.6392 198.313C73.2261 198.666 70.7247 201.284 69.9597 205.464C69.1818 209.715 71.7305 213.004 77.5894 214.959Z" fill="#152230"/>
</svg>
