<svg width="1024" height="256" viewBox="0 0 1024 256" fill="none" xmlns="http://www.w3.org/2000/svg">
<path d="M284 222.977C204.298 222.977 125.096 222.977 45.8947 222.977C45.7493 222.421 45.6039 221.865 45.4586 221.309C55.9111 211.734 67.7251 203.762 79.257 193.908C73.2429 190.078 67.7291 186.538 62.1856 183.045C56.6685 179.569 56.6536 179.483 60.8196 174.622C66.9846 167.427 73.1211 160.209 79.8675 152.3C69.144 147.181 58.952 142.316 49.0257 137.578C49.2966 134.833 50.9155 134.029 52.0686 132.899C60.4001 124.736 68.6119 116.443 77.1724 108.526C80.5733 105.382 80.4478 103.24 77.4635 99.9586C72.3116 94.2946 67.5874 88.2408 62.7061 82.3321C61.6671 81.0745 60.2652 80.0125 60.1421 77.4829C181.765 77.4829 303.336 77.4829 424.907 77.4829C425.142 77.8014 425.377 78.1198 425.612 78.4382C414.413 87.2792 403.214 96.1201 391.204 105.601C398.896 110.488 406.063 115.041 413.848 119.987C406.007 129.246 398.649 137.936 390.69 147.334C401.451 152.467 411.556 157.286 421.332 161.949C421.586 164.241 420.245 164.875 419.324 165.78C410.525 174.417 401.791 183.12 392.885 191.645C390.262 194.156 390.253 196.101 392.589 198.782C397.949 204.936 403.099 211.274 408.307 217.559C409.334 218.799 410.829 219.813 410.571 222.978C368.604 222.978 326.552 222.978 284 222.977ZM92.4998 214.641C192.945 214.641 293.389 214.641 395.159 214.641C389.941 208.372 386.013 203.199 381.589 198.493C378.488 195.194 379.137 193.158 382.204 190.349C389.573 183.602 396.674 176.56 403.81 169.561C405.165 168.232 407.119 167.226 407.28 164.577C397.98 159.148 387.456 155.88 377.683 149.902C385.736 140.402 393.319 131.457 401.331 122.006C393.04 116.651 385.452 111.75 377.022 106.306C385.918 99.2637 394.004 92.8628 403.093 85.6676C293.803 85.6676 185.983 85.6676 78.0509 85.6676C78.1403 88.2539 79.7588 89.5655 80.9776 91.0531C83.5108 94.1449 85.9783 97.3163 88.7692 100.164C92.0802 103.543 92.4299 106.095 88.4703 109.519C81.9278 115.178 75.8402 121.371 69.6889 127.468C67.5266 129.612 64.6733 131.254 63.4391 134.833C73.0838 140.182 83.551 143.591 93.4343 149.561C85.3656 159.07 77.7763 168.014 69.836 177.371C77.6018 183.324 86.1677 187.121 93.8388 193.427C84.9429 200.45 76.5811 207.052 68.2194 213.654C68.3644 213.983 68.5094 214.311 68.6544 214.64C76.2695 214.64 83.8847 214.64 92.4998 214.641Z" fill="#77170F"/>
<path d="M535.659 147.099C535.445 137.819 535.462 129.06 537.638 120.359C544.489 92.9546 566.014 76.5808 594.342 77.524C623.963 78.5102 645.13 98.5384 648.328 128.178C650.201 145.542 648.397 162.177 639.182 177.292C626.922 197.4 608.06 204.809 585.457 202.737C561.721 200.56 546.536 186.941 539.007 164.641C537.152 159.148 535.697 153.459 535.659 147.099ZM583.353 187.258C610.054 192.434 624.889 176.318 629.006 157.377C631.629 145.308 631.807 133.295 628.652 121.335C623.791 102.911 610.754 92.3566 592.938 92.2286C573.849 92.0913 561.065 101.741 555.811 120.669C551.883 134.822 552.116 148.987 557.328 162.817C561.856 174.831 569.727 183.577 583.353 187.258Z" fill="#77170F"/>
<path d="M737.924 72.6089C741.399 71.0603 744.693 70.7532 748.051 70.6965C757.767 70.5326 758.845 71.6941 758.171 81.1627C757.965 84.055 757.103 85.2967 753.867 84.8921C744.097 83.6703 739.824 87.3638 739.313 97.0549C739.296 97.3874 739.295 97.7209 739.284 98.0538C738.84 111.069 738.836 111.169 751.732 111.731C755.199 111.883 756.579 113.219 756.313 116.576C756.208 117.9 756.187 119.251 756.327 120.569C756.735 124.411 754.821 125.591 751.3 125.345C748.98 125.183 746.621 125.506 744.311 125.286C740.373 124.909 739.092 126.515 739.123 130.427C739.273 149.08 739.191 167.734 739.184 186.388C739.183 190.052 739.131 193.716 739.131 197.38C739.131 200.038 737.92 201.322 735.179 201.315C719.957 201.274 722.87 202.586 722.757 189.929C722.582 170.278 722.598 150.622 722.779 130.971C722.818 126.669 721.614 125.007 717.128 125.235C710.483 125.574 703.793 125.596 697.151 125.233C692.354 124.97 691.259 126.886 691.298 131.333C691.483 152.484 691.244 173.638 691.47 194.788C691.522 199.654 690.386 201.638 685.119 201.425C674.264 200.984 675.043 202.395 675.019 191.483C674.975 171.663 674.999 151.844 674.989 132.024C674.985 125.345 674.977 125.345 668.391 125.321C661.525 125.295 658.164 119.836 661.134 113.616C661.83 112.16 663.017 111.852 664.397 111.815C666.228 111.767 668.078 111.599 669.889 111.785C673.918 112.201 675.031 110.316 675.044 106.538C675.066 99.8939 675.347 93.2386 677.419 86.8018C681.285 74.7909 695.019 67.4747 707.067 71.0645C708.989 71.6372 710.432 72.5618 710.303 74.8348C710.119 78.0973 711.064 81.4593 709.66 84.4886C707.806 85.4964 706.208 84.5901 704.587 84.4542C698.717 83.9623 694.403 86.4755 692.818 91.5817C691.064 97.234 691.28 103.092 691.398 108.922C691.442 111.108 692.803 111.734 694.705 111.732C702.866 111.725 711.027 111.705 719.187 111.722C722.173 111.728 722.678 109.891 722.687 107.429C722.708 101.946 722.441 96.4425 723.733 91.0307C725.671 82.9045 729.206 76.0103 737.924 72.6089Z" fill="#77170F"/>
<path d="M766.898 180.889C759.423 160.376 759.604 140.682 773.095 123.22C783.507 109.743 798.439 107.491 814.273 111.394C829.461 115.137 836.991 126.149 840.19 140.708C841.194 145.275 841.256 149.935 841.383 154.608C841.497 158.784 839.855 160.179 835.819 160.15C819.489 160.03 803.157 160.121 786.826 160.106C778.676 160.099 778.188 160.877 779.958 169.164C784.345 189.709 802.237 192.898 813.935 187.049C817.018 185.507 819.741 183.447 821.074 180.324C822.759 176.375 825.576 175.357 829.445 175.777C832.506 176.109 835.725 175.106 838.632 176.638C837.813 188.342 825.497 199.616 810.438 202.672C791.539 206.508 775.564 198.622 766.898 180.889ZM791.53 147.911C801.158 147.901 810.787 147.9 820.415 147.874C822.691 147.867 824.707 147.782 824.508 144.445C823.696 130.868 814.249 122.565 800.177 123.249C788.266 123.828 779.506 134.341 780.29 147.91C783.665 147.91 787.106 147.91 791.53 147.911Z" fill="#77170F"/>
<path d="M953.677 109.938C963.324 110.916 971.848 113.377 977.925 120.965C981.295 125.173 983.843 129.779 983.377 135.702C979.008 136.852 974.697 136.201 970.428 136.19C968.317 136.185 967.921 134.342 967.163 132.883C962.33 123.583 948.69 119.638 939.493 124.883C936.042 126.851 934.221 129.741 934.187 133.844C934.155 137.814 935.993 140.446 939.311 142.307C943.13 144.45 947.303 145.59 951.497 146.657C958.758 148.505 965.961 150.446 972.699 153.89C981.811 158.547 986.303 166.009 986.049 176.067C985.783 186.592 980.957 194.764 971.273 199.159C958.19 205.097 944.76 204.965 931.513 199.485C922.524 195.766 917.577 188.521 915.012 179.387C914.079 176.062 915.226 174.668 918.618 174.825C920.612 174.918 922.631 175.004 924.61 174.804C928.424 174.418 930.501 175.836 932.207 179.499C937.136 190.084 955.729 194.024 964.828 186.758C971.08 181.766 970.212 170.859 963.138 166.738C958.339 163.942 952.933 162.739 947.63 161.318C942.481 159.938 937.349 158.493 932.496 156.261C921.36 151.142 917.004 144.299 917.747 133.292C918.419 123.323 925.509 114.876 935.938 111.837C941.567 110.196 947.333 109.411 953.677 109.938Z" fill="#77170F"/>
<path d="M897.298 127.255C883.103 131.436 876.626 140.513 876.38 156.675C876.182 169.671 876.165 182.675 876.394 195.67C876.471 200.054 875.063 201.493 870.672 201.397C858.401 201.129 859.926 202.279 859.891 190.698C859.818 166.533 859.827 142.368 859.804 118.203C859.799 111.901 859.861 111.843 866.252 111.805C866.752 111.802 867.252 111.806 867.752 111.805C876.186 111.785 876.189 111.784 876.288 120.475C876.307 122.101 876.291 123.728 876.291 126.517C879.008 123.307 880.791 120.772 882.996 118.682C888.245 113.71 894.685 111.185 901.78 110.08C905.132 109.558 906.469 110.869 906.266 114.116C906.224 114.78 906.269 115.449 906.274 116.115C906.348 125.263 906.348 125.263 897.298 127.255Z" fill="#77170F"/>
<path d="M269.627 170.459C269.32 157.644 275.563 149.574 287.583 146.629C296.549 144.433 305.403 144.611 314.026 147.961C322.864 151.395 327.518 158.126 327.726 167.52C327.917 176.227 324.12 183.147 316.227 187.041C304.84 192.659 293.087 192.853 281.527 187.504C274.561 184.282 270.38 178.715 269.627 170.459ZM283.652 171.618C287.095 180.298 292.243 183.118 302.226 181.794C308.908 180.907 313.211 176.497 313.738 169.995C314.382 162.049 311.34 156.691 304.431 154.934C290.036 151.275 281.831 159.942 283.652 171.618Z" fill="#77170F"/>
<path d="M190.24 141.43C184.156 124.896 191.908 112.306 210.158 109.134C217.064 107.933 224.089 108.258 230.854 110.722C240.916 114.387 246.222 121.317 246.313 131.08C246.406 141.063 241.209 148.617 231.073 152.13C220.64 155.747 210.111 155.563 199.935 150.977C195.752 149.092 192.451 146.021 190.24 141.43ZM207.641 142.963C209.635 143.77 211.564 144.862 213.634 145.332C221.234 147.06 228.858 143.68 231.425 137.654C234.238 131.051 232.166 123.231 226.715 119.876C219.947 115.711 208.831 117.076 204.656 122.584C201.189 127.157 200.708 138.236 207.641 142.963Z" fill="#77170F"/>
<path d="M297.378 115.352C275.214 139.063 253.21 162.437 231.472 186.056C226.619 191.329 221.094 188.609 215.863 189.284C214.992 186.752 216.735 185.849 217.79 184.723C239.624 161.414 261.667 138.296 283.216 114.726C288.432 109.022 293.932 109.485 300.198 110.281C300.678 112.918 298.632 113.71 297.378 115.352Z" fill="#77170F"/>
<path d="M127.665 148C127.665 133.343 127.661 119.186 127.672 105.029C127.673 103.698 127.7 102.362 127.827 101.039C127.934 99.9285 128.619 99.2113 129.762 99.1212C131.176 99.0096 131.968 99.8102 132.118 101.133C132.267 102.452 132.274 103.791 132.274 105.121C132.274 134.935 132.264 164.748 132.255 194.561C132.255 195.227 132.265 195.894 132.239 196.56C132.168 198.404 132.306 200.612 129.599 200.398C127.159 200.204 127.711 198.008 127.706 196.468C127.659 180.479 127.67 164.489 127.665 148Z" fill="#77170F"/>
</svg>
