<svg width="748" height="681" viewBox="0 0 748 681" fill="none" xmlns="http://www.w3.org/2000/svg">
<path d="M643.632 298.804C647.747 365.476 633.472 427.363 599.78 484.595C597.399 488.64 598.926 490.325 601.79 492.68C647.872 530.561 693.898 568.509 739.933 606.447C742.226 608.337 744.478 610.276 747.246 612.61C728.628 635.198 710.251 657.492 691.459 680.292C641.534 639.159 592.067 598.402 542.184 557.303C540.711 558.529 539.322 559.612 538.012 560.784C486.268 607.048 426.103 634.741 357.009 642.443C190.985 660.951 36.8437 547.053 5.75887 383.076C0.616673 355.95 -1.07302 328.694 0.654317 301.093C9.84713 154.202 120.151 30.2143 267.087 4.62785C290.83 0.493375 314.754 -0.762942 338.788 0.429487C487.201 7.79295 611.906 117.318 638.889 263.268C641.031 274.852 642.052 286.643 643.632 298.804ZM118.643 438.189C183.264 550.488 324.218 589.483 436.006 526.876C552.102 461.855 588.549 318.854 527.085 208.73C462.169 92.4191 319.116 55.3418 208.666 117.351C93.7536 181.864 53.9827 324.313 118.643 438.189Z" fill="#EB9B37"/>
</svg>
