<svg width="251" height="240" viewBox="0 0 251 240" fill="none" xmlns="http://www.w3.org/2000/svg">
<path d="M176.506 81.1039C201.117 84.6052 225.51 88.0948 250.463 91.6644C249.574 92.6273 248.988 93.3281 248.335 93.9605C228.82 112.87 209.316 131.791 189.745 150.642C188.085 152.241 187.622 153.709 188.028 156.005C191.153 173.69 194.114 191.403 197.14 209.106C198.667 218.037 200.225 226.964 201.757 235.895C201.906 236.763 201.972 237.646 202.138 239.037C200.931 238.54 200.062 238.26 199.265 237.842C175.073 225.145 150.897 212.418 126.67 199.789C125.725 199.297 124.075 199.299 123.129 199.791C100.49 211.573 77.9014 223.454 55.3029 235.315C52.9419 236.554 50.5749 237.782 47.536 239.367C48.1041 235.8 48.5308 232.942 49.0175 230.095C52.3731 210.461 55.7373 190.83 59.1079 171.199C60.0058 165.97 60.896 160.738 61.8732 155.524C62.1996 153.782 61.9571 152.487 60.5787 151.157C43.6712 134.849 26.7889 118.514 9.9975 102.086C6.57044 98.7331 3.54594 94.9688 0.462891 91.5356C3.51242 91.0833 7.26132 90.5125 11.0148 89.9733C24.3473 88.0584 37.6806 86.1492 51.0151 84.2477C61.845 82.7033 72.6712 81.1303 83.5136 79.6785C85.3317 79.4351 86.3968 78.7926 87.2273 77.0951C99.2349 52.5529 111.314 28.046 123.379 3.53184C123.774 2.72942 124.195 1.93981 124.868 0.629883C125.486 1.76746 125.946 2.54933 126.345 3.36108C138.368 27.8045 150.404 52.2419 162.368 76.7146C163.298 78.6175 164.405 79.5573 166.592 79.7179C169.84 79.9564 173.058 80.6133 176.506 81.1039Z" fill="#EB9B37"/>
</svg>
