<svg width="300" height="50" viewBox="0 0 300 50" fill="none" xmlns="http://www.w3.org/2000/svg">
<path d="M66.765 44.0273C66.5557 43.4735 66.3638 42.9667 66.1795 42.4797C65.1269 42.4797 64.0978 42.4797 63.0688 42.4797C58.5702 42.4797 54.0716 42.4851 49.5731 42.471C49.1438 42.4697 48.9225 42.5587 48.774 43.0112C47.4139 47.1556 43.6224 49.8125 39.3201 49.6719C35.0888 49.5335 31.4843 46.6056 30.3796 42.4102C30.3411 42.2639 30.2962 42.1193 30.2476 41.9506C30.0133 41.9098 29.7792 41.8393 29.5432 41.8324C25.7502 41.7223 22.4461 37.6152 21.8834 34.5165C21.6967 33.4881 21.6602 32.4304 21.5899 31.3838C21.5506 30.7989 21.5829 30.2092 21.5829 29.549C21.2898 29.549 21.056 29.549 20.8221 29.549C17.2671 29.549 13.7121 29.5491 10.1572 29.5486C9.95974 29.5486 9.75891 29.5655 9.56551 29.5361C8.97654 29.4466 8.61431 29.1103 8.55115 28.505C8.48858 27.9055 8.82403 27.4165 9.40672 27.2797C9.65899 27.2205 9.92813 27.2161 10.1896 27.2158C13.7227 27.212 17.2557 27.2132 20.7887 27.2132C21.027 27.2132 21.2652 27.2132 21.5431 27.2132C21.5431 25.6138 21.5431 24.0659 21.5431 22.4221C21.294 22.4221 21.0413 22.4221 20.7885 22.4221C14.4247 22.4221 8.06086 22.4222 1.69703 22.4219C1.49956 22.4219 1.30064 22.4337 1.10488 22.4146C0.442805 22.3498 0.000473596 21.8777 3.79601e-07 21.2505C-0.000471651 20.6246 0.43932 20.1534 1.10396 20.0837C1.29947 20.0632 1.49859 20.0755 1.69605 20.0755C8.05988 20.0752 14.4237 20.0752 20.7875 20.0752C21.0259 20.0752 21.2642 20.0752 21.5426 20.0752C21.5426 18.4838 21.5426 16.9371 21.5426 15.2879C21.3128 15.2879 21.0827 15.2879 20.8527 15.2879C17.2319 15.2878 13.6111 15.2901 9.9903 15.286C9.1152 15.2851 8.62315 14.9232 8.55019 14.2566C8.46595 13.4871 8.96985 12.9565 9.82843 12.9513C11.562 12.9407 13.2956 12.9477 15.0292 12.9476C17.1791 12.9475 19.329 12.9476 21.5829 12.9476C21.5829 12.2354 21.5985 11.5431 21.5798 10.8517C21.531 9.04442 21.8279 7.30345 22.6876 5.70531C24.5694 2.20746 27.4886 0.157248 31.4798 0.0703181C37.2703 -0.055797 43.0655 0.0267608 48.8587 0.0240406C54.4764 0.0214046 60.0941 0.023241 65.7119 0.0235463C70.0083 0.0237754 73.1838 1.92583 75.2414 5.68268C77.0298 8.94788 78.7989 12.2237 80.5565 15.5056C81.0654 16.4558 81.7406 17.2263 82.6217 17.846C84.1461 18.9181 85.6379 20.0364 87.1606 21.1109C90.0923 23.1797 91.7276 25.9623 91.823 29.5779C91.8732 31.4822 91.9896 33.4051 91.361 35.2514C90.3381 38.256 88.4158 40.4324 85.4252 41.6187C85.1879 41.7128 84.9091 41.9702 84.8488 42.2033C83.7614 46.4043 80.5949 49.1847 76.3244 49.6483C72.4467 50.0693 68.6712 47.8639 66.765 44.0273ZM33.548 32.7246C36.2549 30.5815 39.2986 29.8937 42.5695 30.9922C46.8919 32.4436 48.997 35.6676 49.3056 40.1253C51.9725 40.1253 54.5952 40.1253 57.2337 40.1253C57.2337 27.522 57.2337 14.9612 57.2337 2.36538C57.005 2.35338 56.8121 2.33444 56.6191 2.3344C48.4999 2.33294 40.3807 2.32994 32.2616 2.33969C31.65 2.34042 31.0272 2.37575 30.4289 2.49316C26.4972 3.26468 23.9116 6.46803 23.8982 10.6412C23.8754 17.707 23.8899 24.7729 23.893 31.8388C23.894 34.1324 24.6195 36.1438 26.2822 37.7657C27.3351 38.7929 28.5057 39.5835 30.0985 39.495C30.3268 36.7853 31.4389 34.5498 33.548 32.7246ZM80.0867 31.6828C82.9988 33.3484 84.6176 35.8895 85.0763 39.2532C87.1461 38.1912 88.4666 36.6298 89.1422 34.5295C89.6914 32.822 89.5786 31.0536 89.4836 29.306C89.3428 26.7132 88.1305 24.6817 86.0282 23.1709C84.4437 22.0323 82.8723 20.8752 81.2762 19.7531C80.0846 18.9154 79.1687 17.8613 78.4826 16.5766C76.7292 13.293 74.9489 10.0238 73.1784 6.7493C71.8628 4.31615 69.8777 2.70043 67.1081 2.4564C64.6698 2.24156 62.2009 2.37466 59.7454 2.35762C59.7111 2.35738 59.6764 2.40289 59.6302 2.43525C59.6302 14.9887 59.6302 27.5489 59.6302 40.0844C61.7427 40.0844 63.8113 40.0844 65.8783 40.0844C65.9422 32.8581 73.6095 28.2591 80.0867 31.6828ZM78.246 33.3781C77.9952 33.3008 77.7468 33.2147 77.4933 33.1474C74.7388 32.416 72.2826 33.0309 70.3215 35.0575C67.1539 38.3311 67.6469 43.3619 71.3704 46.0017C73.736 47.6787 76.3202 47.8156 78.8764 46.4562C81.4853 45.0687 82.7958 42.8007 82.702 39.8486C82.6061 36.8283 81.0232 34.7282 78.246 33.3781ZM42.54 46.7504C43.01 46.4725 43.5179 46.2429 43.944 45.909C47.0481 43.4769 47.8156 39.7083 45.8106 36.3086C44.1953 33.5696 41.0585 32.356 38.0603 33.0364C35.0404 33.7216 32.7857 36.2897 32.4703 39.4032C32.2031 42.0412 33.6435 44.9813 35.9398 46.2903C38.0416 47.4885 40.2005 47.6175 42.54 46.7504Z" fill="#3F3F3F"/>
<path d="M194.374 13.3979C196.726 13.404 198.996 13.5258 201.164 14.3743C204.156 15.5454 206.078 17.6895 206.873 20.7866C207.605 23.6419 207.471 26.4964 206.424 29.2545C204.988 33.0377 202.052 34.9818 198.196 35.7218C195.166 36.3035 192.127 36.1117 189.034 35.8362C189.034 28.5182 189.034 21.2254 189.034 13.7877C190.783 13.6588 192.547 13.5288 194.374 13.3979ZM192.504 15.8679C192.299 15.9232 192.094 15.9785 191.899 16.0314C191.899 21.9038 191.899 27.7288 191.899 33.5965C193.559 33.8354 195.19 33.8115 196.826 33.6245C200.339 33.2228 202.871 31.0935 203.852 27.7041C204.317 26.0994 204.365 24.4557 204.206 22.8144C203.864 19.2737 201.739 16.8426 198.306 16.0302C196.428 15.5858 194.524 15.6271 192.504 15.8679Z" fill="#767777"/>
<path d="M176.947 33.528C177.081 34.1107 177.202 34.6413 177.357 35.321C176.356 35.5678 175.399 35.86 174.42 36.0321C172.922 36.2955 171.411 36.336 169.911 35.9936C167.229 35.3815 165.397 33.7938 164.594 31.1575C163.722 28.2978 163.953 25.4925 165.517 22.916C167.095 20.3169 169.495 19.2735 172.507 19.5796C175.833 19.9177 177.706 22.4008 178.14 25.6403C178.261 26.5344 178.159 27.4583 178.159 28.4131C174.419 28.4131 170.736 28.4131 167.065 28.4131C166.651 30.143 167.893 32.5542 169.637 33.3369C171.825 34.3194 174.041 34.0414 176.252 33.3728C176.475 33.3054 176.779 32.981 176.947 33.528ZM168.623 22.6992C167.652 23.6838 167.141 24.8735 166.97 26.2817C169.813 26.2817 172.585 26.2817 175.409 26.2817C175.413 24.7491 175.103 23.3919 173.894 22.4204C172.426 21.2415 170.345 21.3501 168.623 22.6992Z" fill="#767777"/>
<path d="M160.121 21.9074C161.481 23.9012 161.859 26.0593 161.588 28.4137C157.827 28.4137 154.146 28.4137 150.476 28.4137C150.056 30.1288 151.304 32.5428 153.041 33.3357C155.158 34.3019 157.313 34.0342 159.464 33.4392C159.695 33.3755 159.917 33.281 160.248 33.1634C160.418 33.8535 160.582 34.5149 160.781 35.3202C159.762 35.5707 158.803 35.8629 157.823 36.0341C156.326 36.2956 154.816 36.3362 153.317 35.9932C150.638 35.38 148.806 33.7932 148.005 31.1588C147.137 28.3029 147.362 25.4984 148.924 22.9222C150.499 20.3246 152.895 19.2723 155.905 19.579C157.624 19.7543 159.036 20.4861 160.121 21.9074ZM158.073 23.2445C156.969 21.5172 154.826 21.3549 153.466 21.8323C151.779 22.4246 150.396 24.47 150.434 26.2767C153.222 26.2767 156.01 26.2767 158.814 26.2767C158.894 25.1786 158.619 24.2268 158.073 23.2445Z" fill="#767777"/>
<path d="M295.856 23.0523C296.174 22.1107 296.494 21.2242 296.774 20.3254C296.882 19.9803 297.031 19.8241 297.414 19.8372C298.242 19.8654 299.071 19.8459 300 19.8459C299.879 20.1899 299.795 20.4507 299.696 20.7058C297.897 25.3636 296.12 30.0304 294.284 34.6735C293.477 36.7135 292.525 38.695 291.073 40.3781C289.886 41.7535 288.449 42.7497 286.584 43.2169C286.339 42.4075 286.101 41.622 285.851 40.7993C286.025 40.7187 286.177 40.6443 286.332 40.5775C288.494 39.6443 290.014 38.063 290.887 35.8988C291.05 35.4956 290.956 34.8972 290.786 34.4658C288.962 29.841 287.098 25.2317 285.247 20.6175C285.159 20.3979 285.085 20.1727 284.968 19.85C285.988 19.85 286.943 19.8279 287.894 19.8728C288.045 19.8799 288.245 20.1659 288.316 20.3616C289.743 24.3156 291.155 28.2752 292.571 32.2337C292.593 32.2948 292.619 32.3544 292.685 32.5219C293.757 29.3241 294.8 26.2133 295.856 23.0523Z" fill="#767777"/>
<path d="M210.059 26.3006C210.5 23.9401 211.485 21.9792 213.484 20.6207C215.653 19.1475 219.38 19.0836 221.51 20.8612C222.763 21.9069 223.446 23.2854 223.796 24.8293C224.058 25.9808 224.203 27.1593 223.923 28.4137C220.227 28.4137 216.531 28.4137 212.846 28.4137C212.56 30.4686 213.802 33.1341 216.501 33.7374C218.338 34.1482 220.158 33.9843 221.943 33.3994C222.149 33.3318 222.356 33.2641 222.63 33.174C222.778 33.7722 222.944 34.3349 223.039 34.9094C223.063 35.0488 222.889 35.3236 222.748 35.3725C220.034 36.3172 217.27 36.6651 214.517 35.6246C211.789 34.5936 210.403 32.4413 210.049 29.6294C209.913 28.5556 210.04 27.4487 210.059 26.3006ZM218.773 21.8883C215.862 20.7833 212.429 23.3351 212.862 26.2945C215.634 26.2945 218.407 26.2945 221.175 26.2945C221.372 24.3983 220.44 22.6486 218.773 21.8883Z" fill="#767777"/>
<path d="M259.3 33.4548C256.875 30.3417 257.236 24.6145 259.873 21.7873C261.536 20.0045 263.592 19.3317 265.994 19.5711C269.23 19.8935 271.033 22.1631 271.596 25.1338C271.761 26.0074 271.712 26.9205 271.778 27.8143C271.816 28.3243 271.573 28.4266 271.109 28.4242C267.818 28.407 264.527 28.4151 261.236 28.4151C261.001 28.4151 260.767 28.4151 260.539 28.4151C260.3 31.2954 262.373 33.7046 265.159 33.904C266.93 34.0309 268.652 33.8439 270.383 33.1552C270.555 33.868 270.712 34.5156 270.907 35.3239C269.88 35.5736 268.902 35.8693 267.903 36.0404C266.427 36.2933 264.939 36.3295 263.459 35.9983C261.799 35.6266 260.395 34.84 259.3 33.4548ZM268.625 26.3359C268.747 26.2065 268.965 26.0829 268.973 25.9467C268.992 25.6252 268.936 25.2923 268.867 24.9736C268.575 23.6328 267.993 22.4586 266.637 21.938C263.061 20.5659 260.671 23.543 260.567 26.3363C263.214 26.3363 265.859 26.3363 268.625 26.3359Z" fill="#767777"/>
<path d="M131.682 23.3874C132.596 23.3874 133.445 23.3874 134.333 23.3874C134.333 24.2185 134.333 24.9734 134.333 25.809C131.523 25.809 128.75 25.809 125.915 25.809C125.915 29.1911 125.915 32.4935 125.915 35.8365C124.941 35.8365 124.03 35.8365 123.069 35.8365C123.069 28.4357 123.069 21.0369 123.069 13.6006C127.055 13.6006 131.017 13.6006 135.027 13.6006C135.027 14.3744 135.027 15.1279 135.027 15.9636C132.02 15.9636 129.009 15.9636 125.953 15.9636C125.953 18.4654 125.953 20.8861 125.953 23.3874C127.857 23.3874 129.736 23.3874 131.682 23.3874Z" fill="#777878"/>
<path d="M250.324 35.3726C250.229 35.778 250.023 35.9071 249.649 35.8868C249.036 35.8536 248.42 35.861 247.807 35.8846C247.479 35.8972 247.292 35.8073 247.169 35.4821C245.235 30.3617 243.289 25.2454 241.348 20.1274C241.326 20.0697 241.326 20.0037 241.3 19.8491C242.255 19.8491 243.187 19.8271 244.116 19.8719C244.262 19.8789 244.455 20.167 244.522 20.3611C245.927 24.4384 247.317 28.5209 248.71 32.6023C248.736 32.6775 248.766 32.7514 248.828 32.9182C248.915 32.7279 248.975 32.622 249.014 32.5088C250.404 28.4722 251.8 24.4375 253.17 20.3941C253.316 19.9635 253.511 19.813 253.961 19.8351C254.742 19.8735 255.526 19.8458 256.422 19.8458C254.37 25.0696 252.356 30.196 250.324 35.3726Z" fill="#767777"/>
<path d="M230.575 16.9012C230.575 23.2383 230.575 29.5097 230.575 35.8289C229.606 35.8289 228.677 35.8289 227.708 35.8289C227.708 28.0486 227.708 20.2717 227.708 12.4448C228.636 12.4448 229.563 12.4448 230.575 12.4448C230.575 13.9108 230.575 15.3731 230.575 16.9012Z" fill="#747575"/>
<path d="M279.576 23.5204C278.617 24.6794 278.318 26.0044 278.316 27.4204C278.312 29.9869 278.315 32.5533 278.315 35.1198C278.315 35.3545 278.315 35.5892 278.315 35.8507C277.315 35.8507 276.4 35.8507 275.4 35.8507C275.4 30.5286 275.4 25.2297 275.4 19.888C276.16 19.888 276.961 19.888 277.812 19.888C277.863 20.8973 277.913 21.8897 277.971 23.0629C278.25 22.5347 278.423 22.1441 278.65 21.7888C279.62 20.2734 280.967 19.4396 282.815 19.515C283.191 19.5303 283.37 19.6342 283.353 20.0511C283.324 20.7705 283.345 21.492 283.345 22.2962C281.906 22.1673 280.593 22.351 279.576 23.5204Z" fill="#777878"/>
<path d="M138.189 32.833C138.189 28.4941 138.189 24.2212 138.189 19.8972C138.938 19.8972 139.754 19.8972 140.602 19.8972C140.649 20.9096 140.695 21.8978 140.75 23.0799C141.046 22.5212 141.22 22.1259 141.451 21.768C142.413 20.2816 143.741 19.4541 145.561 19.5132C145.956 19.5261 146.165 19.6175 146.143 20.0755C146.108 20.7926 146.134 21.5126 146.134 22.2345C145.467 22.2792 144.845 22.2398 144.263 22.3753C142.527 22.7801 141.27 24.3805 141.172 26.4913C141.065 28.8107 141.114 31.1375 141.098 33.461C141.092 34.246 141.097 35.031 141.097 35.846C140.112 35.846 139.198 35.846 138.189 35.846C138.189 34.8559 138.189 33.8774 138.189 32.833Z" fill="#767777"/>
<path d="M235.466 27.3032C235.466 24.8056 235.466 22.3739 235.466 19.8516C236.383 19.8516 237.253 19.8354 238.121 19.873C238.226 19.8775 238.392 20.1701 238.401 20.3359C238.434 20.9703 238.415 21.6075 238.415 22.2437C238.415 26.5215 238.415 30.7992 238.415 35.077C238.415 35.3143 238.415 35.5516 238.415 35.8334C237.424 35.8334 236.493 35.8334 235.466 35.8334C235.466 33.0123 235.466 30.1906 235.466 27.3032Z" fill="#777878"/>
<path d="M236.466 17.0999C235.418 16.6965 234.991 15.9812 235.165 14.9896C235.314 14.1402 236.055 13.5311 236.941 13.5293C237.926 13.5273 238.678 14.2592 238.725 15.2651C238.772 16.2868 238.134 17.0306 237.105 17.1369C236.911 17.1568 236.712 17.1248 236.466 17.0999Z" fill="#767777"/>
<path d="M62.0387 6.04351C62.2176 5.11372 62.5595 4.81027 63.4113 4.80066C64.267 4.79101 65.1229 4.8036 65.9786 4.79746C68.4732 4.77956 70.2942 5.87105 71.4722 8.07411C73.0315 10.9901 74.592 13.9059 76.1975 16.7965C76.7046 17.7095 77.3364 18.5568 77.9533 19.4035C78.2681 19.8356 78.4011 20.2638 78.1797 20.7463C77.9678 21.208 77.5713 21.405 77.0602 21.4045C72.4742 21.4007 67.8883 21.4071 63.3024 21.3976C62.4453 21.3959 62.0398 20.9276 62.0391 19.9912C62.0356 15.3614 62.0375 10.7316 62.0387 6.04351ZM74.155 19.0938C74.3206 19.0859 74.4862 19.078 74.6731 19.0691C74.6532 18.9496 74.6584 18.8808 74.6308 18.8297C72.8197 15.4813 71.0114 12.1314 69.1886 8.7893C68.7092 7.91035 67.9388 7.34036 66.9605 7.21504C66.1285 7.10846 65.272 7.19303 64.4165 7.19303C64.4165 11.1572 64.4165 15.093 64.4165 19.0938C67.6441 19.0938 70.8395 19.0938 74.155 19.0938Z" fill="#3F3F3F"/>
<path d="M76.5452 43.5659C74.6841 44.09 73.1361 43.1631 72.4316 42.0386C71.6289 40.7573 71.6992 39.0785 72.597 37.9072C73.5708 36.6368 75.1933 36.147 76.7106 36.6654C78.1213 37.1474 79.1373 38.578 79.1399 40.0859C79.1425 41.6632 78.1429 43.0209 76.5452 43.5659ZM74.2137 40.3249C74.4847 41.1103 74.9565 41.4619 75.6444 41.3913C76.2525 41.3289 76.7346 40.8413 76.7901 40.2327C76.8587 39.4788 76.3398 38.8448 75.5994 38.7781C74.8225 38.7082 74.2652 39.2811 74.2137 40.3249Z" fill="#3F3F3F"/>
<path d="M43.0303 38.7024C43.9626 41.2366 42.2121 43.474 40.1102 43.6925C38.6457 43.8446 37.4656 43.3118 36.6576 42.1099C35.8317 40.8813 35.7936 39.5465 36.5423 38.2617C37.2628 37.0251 38.3906 36.4147 39.8253 36.477C41.321 36.542 42.3606 37.3258 43.0303 38.7024ZM40.0028 38.8284C39.1135 38.5192 38.1482 39.461 38.3862 40.3753C38.5453 40.9866 39.0496 41.3959 39.6656 41.3964C40.2529 41.3969 40.7832 40.999 40.9353 40.4439C41.1129 39.7955 40.824 39.2501 40.0028 38.8284Z" fill="#3F3F3F"/>
</svg>
