<svg width="190" height="155" viewBox="0 0 190 155" fill="none" xmlns="http://www.w3.org/2000/svg">
<path d="M171.421 23.976C177.209 22.7018 182.997 21.4275 188.786 20.1533C189.095 20.3799 189.405 20.6065 189.714 20.8331C184.681 25.8894 179.862 31.1891 174.521 35.8951C172.011 38.1063 170.953 40.1526 170.935 43.4586C170.643 97.3324 132.883 142.972 80.3208 153.14C53.5078 158.327 20.9358 152.305 0 137.668C21.0902 139.055 39.3852 134.381 55.0103 122.688C48.1404 119.582 40.8616 117.069 34.4266 113.165C27.7895 109.139 23.4464 102.721 20.9541 94.4067C26.0753 94.4067 30.7747 94.4067 35.4742 94.4067C35.6772 94.0478 35.8804 93.6889 36.0835 93.33C18.2734 86.972 8.24927 74.8533 7.03146 55.5993C12.6211 57.0815 17.7807 58.4497 23.9238 60.0787C6.52591 39.44 3.31387 23.5068 13.3463 7.90164C34.2555 32.0748 60.406 45.8671 92.8282 48.1405C92.8282 46.0358 92.895 44.1314 92.8177 42.2329C92.1253 25.2155 99.2994 12.229 114.295 4.68014C129.436 -2.94153 144.383 -1.30073 157.559 9.94392C160.088 12.1026 162.295 12.6578 165.18 11.5439C171.217 9.21368 177.251 6.87531 183.631 4.53779C183.977 4.5353 183.937 4.47354 183.937 4.47354C181.038 9.42054 178.248 14.4376 175.172 19.2722C174.241 20.7353 172.516 21.6932 170.815 23.2506C170.491 23.8517 170.507 24.0845 170.524 24.3174C170.823 24.2036 171.122 24.0898 171.421 23.976Z" fill="white"/>
</svg>
