<svg width="164" height="188" viewBox="0 0 164 188" fill="none" xmlns="http://www.w3.org/2000/svg">
<path fill-rule="evenodd" clip-rule="evenodd" d="M113.591 8.16935C91.8281 -4.53344 61.4562 -2.2201 41.6554 13.6998C28.0455 24.6422 19.6193 38.6552 17.0362 56.1564C16.6447 58.809 16.6303 61.3413 16.6189 63.3555L16.6172 63.6524C16.5974 66.8685 16.5604 70.115 16.5231 73.3827C16.4023 83.9606 16.2791 94.7623 16.7317 105.484C17.028 112.5 14.5157 118.279 9.92448 124.576C8.85722 126.04 8.03546 127.251 7.2876 128.353C6.23814 129.899 5.33405 131.23 4.10144 132.747C1.39376 136.078 -1.82423 141.769 1.25827 148.561C4.53635 155.784 11.463 157.138 16.022 157.172C25.3726 157.241 34.7541 157.269 44.1463 157.172C46.2682 157.15 48.3368 157.242 50.5334 157.367C50.5159 157.548 50.5058 157.73 50.5034 157.915C50.4416 162.625 51.1966 167.903 54.6921 172.795C60.5019 180.926 68.4295 186.669 79.508 187.511C88.8183 188.219 97.6711 184.274 103.81 178.787C109.609 173.604 114.402 165.655 112.981 157.286C113.679 157.203 114.512 157.164 115.531 157.17C121.434 157.206 127.446 157.202 133.43 157.198C138.347 157.195 143.244 157.192 148.046 157.211C153.102 157.231 158.984 155.274 162.12 149.452C165.501 143.176 162.915 137.171 160.262 133.539C159.182 132.061 158.196 130.542 157.09 128.838C156.82 128.422 156.543 127.995 156.256 127.555C154.856 125.412 153.259 123.033 151.373 120.773C148.463 117.286 147.355 113.542 147.476 108.357C147.796 94.7423 147.749 81.1365 147.534 67.5847C147.128 41.9991 136.306 21.4278 113.591 8.16935ZM100.073 157.034C99.9865 157.039 99.8971 157.044 99.8048 157.049L99.7505 157.053C99.0195 157.096 98.0982 157.15 97.141 157.159C93.7239 157.192 90.1846 157.104 86.7949 157.021L86.7932 157.021C85.1244 156.979 83.4918 156.939 81.928 156.914C77.0138 156.837 72.3934 156.899 67.934 157.429C66.4306 157.608 64.9497 157.713 63.4988 157.767C63.5025 157.873 63.5037 157.979 63.5023 158.085C63.4603 161.283 63.9856 163.44 65.2693 165.237C69.3618 170.964 74.0676 174.06 80.4931 174.549C85.5984 174.936 91.0911 172.719 95.1467 169.095C99.4071 165.286 100.569 161.426 100.135 159.302C99.9773 158.533 99.9629 157.768 100.073 157.034ZM115.616 143.17C113.438 143.157 110.844 143.266 108.135 143.987C105.698 143.095 103.408 142.951 101.608 142.966C100.683 142.974 99.7771 143.027 99.0559 143.069L98.9837 143.074C98.1928 143.12 97.5888 143.154 97.0057 143.16C93.8145 143.19 90.716 143.113 87.4849 143.032L87.4809 143.032C85.753 142.989 83.9871 142.945 82.1488 142.916C77.0449 142.835 71.6818 142.885 66.2807 143.527C62.9801 143.919 59.6266 143.852 55.8994 143.654C55.1047 143.612 54.2775 143.562 53.426 143.511L53.4202 143.511C50.46 143.334 47.206 143.139 44.0006 143.172C34.7283 143.269 25.4408 143.241 16.1258 143.172C14.9157 143.163 14.3103 142.982 14.0851 142.878C14.1154 142.814 14.1563 142.735 14.2111 142.64C14.3677 142.368 14.6075 142.017 14.9649 141.578C16.4643 139.733 18.0713 137.392 19.4269 135.418C20.1092 134.424 20.728 133.523 21.2371 132.824C26.8669 125.102 31.1983 116.237 30.7193 104.893C30.284 94.583 30.4008 84.3019 30.5201 73.8065C30.558 70.4747 30.5961 67.1211 30.6169 63.7384C30.6308 61.4846 30.6442 59.8399 30.8861 58.2006C32.9273 44.3719 39.4195 33.4613 50.4278 24.6106C65.743 12.2972 89.8223 10.5062 106.533 20.2604C124.677 30.8505 133.201 46.7116 133.536 67.8068C133.749 81.2482 133.794 94.6583 133.48 108.029C133.297 115.847 135.101 123.124 140.624 129.743C141.951 131.333 143.174 133.127 144.534 135.21C144.768 135.569 145.009 135.941 145.257 136.323L145.259 136.325C146.378 138.052 147.626 139.975 148.958 141.799C149.239 142.183 149.428 142.506 149.55 142.759C149.585 142.833 149.614 142.898 149.636 142.953L149.625 142.959C149.432 143.054 148.955 143.214 148.101 143.211C143.1 143.191 138.194 143.195 133.308 143.198H133.305C127.426 143.202 121.575 143.206 115.616 143.17Z" fill="white"/>
</svg>
