<svg width="207" height="201" viewBox="0 0 207 201" fill="none" xmlns="http://www.w3.org/2000/svg">
<path d="M202 49.5146C198.04 69.9906 191.737 89.8659 186.502 110.015C184.988 115.845 183.446 121.668 182.014 127.518C180.44 133.953 174.231 138.997 167.5 139.003C136.333 139.029 105.167 139.003 74 139.036C71.4999 139.039 69 137.937 66.5 139.015M201 50.0146C199.086 48.4197 196.796 48.5063 194.5 48.5068C145.5 48.5171 96.5 48.5205 47.5 48.4941C45.4175 48.493 43.4073 48.6253 41.5 49.5146M155 163.015C153.833 165.681 152.599 168.321 151.513 171.02C148.802 177.766 149.704 183.919 154.482 189.53C159.649 195.595 166.595 196.288 173.462 194.836C180.711 193.302 185.894 183.521 184.982 175.017C184.381 169.411 178.628 161.525 170.497 160.537C169.183 160.378 167.775 160.263 166.51 160.556C158.824 162.337 151.176 160.885 143.497 160.583C135.676 160.275 127.833 160.515 120 160.515C112.333 160.515 104.664 160.628 97.0011 160.463C93.6071 160.389 90.4574 160.854 87.5 162.515M5 5.01473C11 5.01473 17.0002 5.04512 22.9999 5.00043C25.5571 4.98138 27.3043 5.58936 28.058 8.49972C30.5714 18.206 33.3156 27.8531 36.0146 37.5106C36.5813 39.5386 37.0939 41.6372 38.043 43.4927C41.4296 50.1133 40.681 57.6482 42.9316 64.537C45.2401 71.6029 47.0081 78.8458 48.9982 86.0152C52.8375 99.8469 56.4451 113.748 60.5913 127.487C62.7371 134.598 66.4808 141.177 66.1493 149.021C66.0383 151.648 67.6958 154.339 68.4917 157.017C69.241 159.539 70.9575 160.598 73.5 160.516C73.8331 160.505 74.1669 160.507 74.5 160.516C86.5729 160.827 89.1577 162.584 90.962 172.522C92.7887 182.582 90.0811 190.289 80.5088 194.037C68.3855 198.784 56.3218 189.798 56.5945 177.517C56.7266 171.575 59.3116 166.463 64.4958 163.009C66.1885 161.881 67.8334 160.681 69.5 159.515" stroke="white" stroke-width="10" stroke-linecap="round" stroke-linejoin="round"/>
</svg>
