<svg width="155" height="208" viewBox="0 0 155 208" fill="none" xmlns="http://www.w3.org/2000/svg">
<path d="M149.685 76.612C148.811 70.6177 148.831 64.5759 147.298 58.5831C140.445 31.7849 116.902 10.5438 89.6988 6.02984C50.6588 -0.448359 14.6553 24.1986 6.32696 64.1415C2.45294 82.7215 7.34657 100.283 17.2945 116.043C32.7136 140.471 48.8375 164.455 64.6998 188.602C67.2627 192.504 69.8555 196.406 72.7268 200.079C76.2611 204.601 79.9932 204.405 83.1669 199.6C101.205 172.292 119.493 145.141 137.034 117.516C144.06 106.45 149.027 94.1986 149.227 80.6126C149.244 79.4413 149.852 78.2786 150.185 77.112M71.6851 41.1119C61.1931 43.604 52.4778 48.8678 46.7232 58.1355C33.8826 78.8151 45.8461 102.765 63.5976 110.318C85.4754 119.625 109.134 104.277 112.651 85.1056C116.237 65.562 107.234 48.5122 86.684 42.1154C81.9355 40.6373 77.036 41.1913 72.1851 41.1119" stroke="white" stroke-width="9" stroke-linecap="round" stroke-linejoin="round"/>
</svg>
