<svg width="175" height="175" viewBox="0 0 175 175" fill="none" xmlns="http://www.w3.org/2000/svg">
<path d="M170.057 168C171.678 160.708 169.821 153.74 167.488 147.024C158.331 120.662 139.925 104.076 113.034 97.0866C104.578 94.8888 96.7589 93.0823 88.0566 93C77.1833 92.8972 65.4709 95.729 55.0386 99.4492C37.4138 105.734 23.9982 116.99 14.5946 133.022C8.91491 142.706 5.71338 153.233 5.03674 164.499C4.77392 168.872 5.83423 169.984 11.0566 169.991C29.5566 170.014 48.0566 170 66.5566 170C99.0566 170 131.557 170.015 164.057 169.964C166.113 169.961 168.516 170.835 170.057 168.5M88.0484 4C78.2743 4.40547 69.6037 7.47204 62.545 14.4966C53.3382 23.6591 49.3601 34.6914 51.6203 47.4873C54.3454 62.9144 63.5429 73.2522 78.5785 77.3908C100.608 83.4544 121.6 68.5929 125.216 47.5287C128.708 27.1855 114.793 8.70987 95.5389 4.54387C93.2755 4.05411 90.8818 4.16667 88.5484 4" stroke="white" stroke-width="8" stroke-linecap="round" stroke-linejoin="round"/>
</svg>
